<?xml version="1.0" encoding="UTF-8"?>
<svg version="1.1" viewBox="0 0 2000 2000" width="500" height="500" xmlns="http://www.w3.org/2000/svg">
<path transform="translate(437,698)" d="m0 0h40l20 2 20 5 27 11 20 11 19 14 7 7 2 1v2l4 2 13 14 11 14 12 18 9 16 6 15 4 17 1 8v20l-3 20v18l4 17 8 17 9 12 11 12 9 10 6 9v11l-8 11-13 8-22 9-7 6-1 2v13l3 9v7l-7 5-11 3 2 5h2l3 6-2 7-6 7-4 9-1 8 3 16 4 15-1 10-4 10-6 8-9 6-13 5-16 2h-25l-31-4h-7l-5 5h-2l-2 4-7 11-4 11-1 12 3 16 9 17 8 10 3 4-1 5-16 9-21 8-12 3-10 1h-31l-19-3-17-5-24-11-22-12-12-8-19-14-16-9-16-8-12-5-22-5h-25l-24 4-10 2-5-1-2-4 1-5 7-11 22-22 14-11 18-14 36-26 17-12 19-13 18-13 10-7 13-11 9-9 8-11 6-10 4-11 1-6v-16l-3-9-6-10-9-8-11-6-13-5-5-2h-6l-7 3-10 3-7 1h-18l-9-3-7-5-6-10-3-7v-16l5-12 4-6 8-8 16-8 16-5 14-1 11-7 13-13 11-15 5-13 1-12-1-12-4-7-4-3-8 1-16 8-11 5-17 4h-19l-13-4-8-7-3-7-1-13 2-11 9-17 13-16 4-5 13-10 17-11 16-9 23-11 20-7 9-3 21-4zm-140 89-8 3-5 7v10l4 7 4 3 9 1 9-3 5-6 1-2v-8l-4-7-5-4zm12 140-5 2-5 4-3 5-1 6 2 7 7 7 4 2h7l8-6 5-7-1-7-5-8-7-4z" fill="#0E4BC1"/>
<path transform="translate(437,698)" d="m0 0h40l20 2 20 5 27 11 20 11 19 14 7 7 2 1v2l4 2 13 14 11 14 12 18 9 16 6 15 4 17 1 8v20l-3 20v18l4 17 8 17 9 12 11 12 9 10 6 9v11l-8 11-13 8-18 7-5-2-11 1-3 1h-12l-12-6-10-8-7-10-7-16-2-3-3-10-1-5-4-4v-2l-4-2-1-6-4-3-1-7h-2l-3-9-3-5-1-4-2 3h-5l-2-9-4-8-7-20-3-7-1-8h-2l-9-19-6-11-3-4-3-5-2-4-3-1-5-5-15-10-17-8-6-2-19-3h-30l-14 2-18 4-14 4h-3l-1 3-4-2-8 1-16 8-11 5-17 4h-19l-13-4-8-7-3-7-1-13 2-11 9-17 13-16 4-5 13-10 17-11 16-9 23-11 20-7 9-3 21-4zm-140 89-8 3-5 7v10l4 7 4 3 9 1 9-3 5-6 1-2v-8l-4-7-5-4z" fill="#1D87E1"/>
<path transform="translate(359,970)" d="m0 0h7l19 4 2 1v2l8 2 11 7 7 7 8 15 6 18 7 28 2 9 6 21 5 14 8 16 10 15 7 8v2l4 2 13 10 11 7 21 9 23 7 27 5 21 3-2-4-7-3-4-3 1-3 4-1 14 1 10-2 3-3 9-4h2l2-10 2-4h2v-2h2l1 8-3 11-5 9-8 7-11 5-10 3-12 1h-25l-31-4h-7l-5 5h-2l-2 4-7 11-4 11-1 12 3 16 9 17 8 10 3 4-1 5-16 9-21 8-12 3-10 1h-31l-19-3-17-5-24-11-22-12-12-8-19-14-16-9-16-8-12-5-22-5h-25l-24 4-10 2-5-1-2-4 1-5 7-11 22-22 14-11 18-14 36-26 17-12 19-13 18-13 10-7 13-11 9-9 8-11 6-10 4-11 1-6v-16l-3-9-6-10-9-8-11-6-3-7z" fill="#0614A3"/>
<path transform="translate(437,698)" d="m0 0h40l20 2 20 5 27 11 20 11 19 14 7 7 2 1v2l4 2 13 14 11 14 12 18 9 16 6 15 4 17v11l-4-2-7-10-13-23-8-11-5-6-13-10-13-5-64-4-10-2-13-8-10-9-3-3v-2l-4-2v-2l-3-1-5-7v-2l-4-2-9-6-7-2h-13l-17 3-9 2-5 2v2h-2v2l-5 2 1 4 3 3 2 6 8 5 4 4 8 4 9 3 5 2v2l5 2 14 11 14 7 3 2v2l4 1 14 9 11 7v2l6 2 5 4 2 1v2l4 1 2 1v2h2v2h2l4 6v2h2l7 11 8 12 8 17 8 19-1 4-9-21-7-13-10-16-10-13-6-6v-2h-2v-2l-6-3v-2l-5-2-5-4-13-8-10-4-14-7-6-2-19-3h-30l-14 2-18 4-14 4h-3l-1 3-4-2-8 1-16 8-11 5-17 4h-19l-13-4-8-7-3-7-1-13 2-11 9-17 13-16 4-5 13-10 17-11 16-9 23-11 20-7 9-3 21-4zm-140 89-8 3-5 7v10l4 7 4 3 9 1 9-3 5-6 1-2v-8l-4-7-5-4z" fill="#1D87E1"/>
<path transform="translate(380,990)" d="m0 0 5 2 10 7 3 5 5 4 2 11h2l1 7h2l8 25 4 10 9 27 5 10 3 8 8 16 7 10 10 13 11 11 10 7 14 8 8 4 1 2-30-6-28-3h-24l-23 5-12 4-12 7-15 11-3 3-10 3-9-2-4 4h-6l-1 3h-2v5l-4 1-15-5-19-9-8-7h-3v-2l-17 4h-9l-11 2-5-2-4-5-5-2v-3l-2-1h2v-2h2l-1-5-3 1 2-4 18-14 36-26 17-12 19-13 18-13 10-7 13-11 9-9 8-11 6-10 4-11 1-6v-16l-3-9-6-10-2-3z" fill="#0E4BC1"/>
<path transform="translate(430,828)" d="m0 0h23l13 3v2l6 2 8 4 10 9 10 11 10 15 8 15 4 9 4 10 2 10-4-4-4 1-5-5v-2l-3-1-10-14-2-4h-2l-5-6-11-8v-2l-4-2-5-3v-2l-9-3-5-2v-2l-7-2-8-3h-5l-1 3h-22l-8 1-10 8-4 5-6 15-1 17-3 3 5 7 16 10 7 6v2l4 2 7 8 9 11 9 14 10 19 7 20 5 17 1 9 2 2 3 15 6 24 7 19 5 9 3 7 7 12 10 12v2l3 1 4 5 4 9v3h2l1 8-4 3-9-3-11-6-12-8-9-8v-2l-3-1-9-11-6-9-8-15-6-16-7-30-4-24-5-23-4-11-10-16-8-7-5-2-8-4-13-4-32-1-12 2-1 1h-6l-1-4 2-3 1-12v-6l-4-8-9-6-9 1-10 2-5 6-2 8 2 10-3 4v4l-4-2-8-11-2-6v-13l-3-1 2-5 9-9 16-8 16-5 14-1 11-7 13-13 11-15 5-13h2v-2h2l2-5 9-3 6-3 1-2 18-5 8-2z" fill="#1F94E7"/>
<path transform="translate(438,853)" d="m0 0h6l9 4 8 3 12 6v2l4 1 5 4 5 5 9 7 2 4h2l12 16 3 3v2l3 1 2 3 5-1 2 3-1-6 2 2 7 19 6 17 13 36 14 30 11 18 3 5 2 1 1 3h3l1 2-2 1 3 1v2l10 2 1-2 15 2-2 4-4 3h-11l-12-2h-2v2l-5 3 6 3-2 2-7-1-1 2-10 1h-11l-5-4v-2h-2l-3-5-1-4-4-1-3-7-2-14-3-11-7-7v-2l-4-1-5-3-4-4-12-7h-2v-2h-3v-2l-5-1-11-6-2-5-3-3 1 6 2 1v2h-2l1 7h-2v6l-2 4-1 13h-2l-1-7-3-4v-2l-3-1-2-4v5 4l4 15 1 12-2-1-2-12-7-23-6-15-10-19-8-11-9-11-7-8-8-7-15-10-5-4-3-6h3l1-19 6-15 7-8 8-6 8-1h16l6 1z" fill="#176ACE"/>
<path transform="translate(729,1094)" d="m0 0 36 1 10 42 10 45v3h2l3-15 16-67 3-8h36l4 15 16 68v5h3l4-19 16-68 1-1h37l-2 10-17 63-18 65-3 10-14 1h-21l-2-1-13-52-8-33-2-5-10 42-11 46-3 3h-33l-2-2-12-43-17-62-10-37v-5z" fill="#1D87E1"/>
<path transform="translate(1148,1095)" d="m0 0h117l8 3 6 7 3 8v39l-3 8-6 7-3 1-1 2 5 2 6 8 2 5v40l-4 10-8 7-12 2h-109l-1-1zm37 30v29h54l5-2 1-3v-21l-2-3zm0 59v29h58l2-2v-21l-2-5-18-1z" fill="#1E88E2"/>
<path transform="translate(1318,1095)" d="m0 0h100l7 3 4 3v2h2l4 9v113l-3 8-6 7-6 3-10 1h-88l-8-2-8-7-3-4-2-7v-110l4-10 8-7zm23 30-3 2v85l1 1h57l2-1v-85l-2-2z" fill="#1E88E2"/>
<path transform="translate(443,738)" d="m0 0h13l9 3 11 8 6 9 6 5 7 8 10 8 9 5 10 2 51 3 10 2v2l8 1 10 5 8 6 4 5v2h2l6 11 7 10 3 5 4 12-1 6-5 7 1 7-7 2-11 2-8 3-7 3-2 4-5 2v5l-3 1h-12l-2-4-1-6-1 1-1 7 1 3h3l-1 9 2 9 2 6 2 10v8l2 5 1 13-3-1-8-27-3-8-2-10-9-21-8-15-12-18v-2h-2l-4-6v-2h-2v-2h-2v-2l-6-2v-2l-5-2-4-3-4-2v-2l-5-2-15-10h-2l-4-4-3-1v-2l-5-2-13-7-13-10-5-3v-2l-18-6-8-5-4-4-5-3-3-8-3-1 1-4 5-2v-2h2v-2l8-4 9-2z" fill="#1F94E7"/>
<path transform="translate(937,1095)" d="m0 0h36l1 1v57h60v-57l1-1h36v148l-3 1h-33l-1-7v-52h-60v58l-8 1h-28l-1-2z" fill="#1D87E1"/>
<path transform="translate(437,698)" d="m0 0h40l20 2 20 5 27 11 20 11 19 14 7 7 2 1v2l4 2 13 14 11 14 12 18 9 16 3 9h-2l-5-9h-3l-3-5-2-4h-2v-2h-3l-8-10-14-9-13-5-24-5-21-3-16-4-16-7-16-10-13-10-13-8-8-5-8-2h-18l-16 4-16 8-15 9-24 15-9 3-10 3h-3l-1 2h-6l-1 1h-19l-19-3-5-3v-2l-3-1 6-7 13-10 17-11 16-9 23-11 20-7 9-3 21-4z" fill="#2095E7"/>
<path transform="translate(1688,1095)" d="m0 0h59l3 8 12 36 18 55 13 40 2 5-1 5h-34l-3-2-8-23-1-2h-62l-8 26-3 1h-35l-1-2 12-36 21-64 13-40zm29 30-4 10-16 48v2h40l-1-7-17-51z" fill="#1D87E1"/>
<path transform="translate(239,821)" d="m0 0 9 1 6 3 3 4 2 9 15 3 42 11 4-5 6-5 6-2 10 1 7 4 5 8 1 3v8l-6 10-7 4-8 2-6-1-6-4-3-3-5 2-16 8-36 17-10 5-1 9-8 9-5 2-1 2-4 37-1 12 8 6 3 4v7l9 2 55 17 15 4 2-5 7-6 6-2h12l10 5 6 9 1 3v11l-5 10-7 6-7 2h-9l-12-3-8 6-12 11-8 7-10 9-11 10-4 3v14l-4 6-6 4-6 1-8-3-5-6-1-3v-7l3-6 5-4-3-11-11-40-7-25-1-5-8-1-6-5-3-5v-2l-27 1-6 5-5 1-5-3-3-7 3-6 6-4 5 2 5 5h27l4-7 5-4 5-1 2-18 2-25v-9l-8-7-3-4-35 1-5 6h-6l-5-4-1-2v-7l4-5 2-1h6l6 6h26l8-1 7-9 7-5 2-8 1-20 2-11-4-2-6-7v-12l4-6zm18 22-5 6-8 3-2 22-2 11v9l9 5 20-9 20-11 22-10 5-3v-7l-1-2-47-11zm-17 155-5 6 1 8 7 24 9 34 5 15 7 2h7l5-5 2-4 4-2 12-11 11-9 8-8 10-8-1-6-2-13-9-3-49-15-16-5z" fill="#0F4EC2"/>
<path transform="translate(1445,1095)" d="m0 0h133l1 1v27l-2 2h-47v118l-3 1h-33l-1-1v-118h-47l-1-1z" fill="#1D87E1"/>
<path transform="translate(389 1e3)" d="m0 0 4 1 1 3 4 1 5 7 12 31 4 15 6 18v4h2l1 7 3 9v9l2 9 1 5-7 1-1 1h-14l-5-3 2-1v-2l-12-2-9-2-4-4-9-2-6-5-2 4-8 14-2 3h-2l-2 4-4 5-8 7-9 8-5-1-4-3-9-2-2-3-7-2-1-2v-8l4-1 1-5 4-1-1-3 5-3 1-8 13-10 15-10 14-12 9-9 8-11 6-10 4-11 1-6v-16l-1-7z" fill="#176ACF"/>
<path transform="translate(417,805)" d="m0 0h30l19 3 17 7 3 2v2l5 2 8 6 11 11 11 15 10 18 10 25 10 30 6 22 5 19 8 26 10 26 9 13 7 6v2l5 1v2l22 2v2h-18l-10-4-9-7-8-8-9-14-8-16-6-15-5-12-11-32-14-36-7-15-9-17-9-13v-2h-2l-4-5v-2h-2v-2h-2v-2l-4-2-4-3v-2l-6-2-11-6-12-4-9-1h-12l-18 3-20 7-14 7-5 1h-2l-2-16-4-7 1-4 24-7 15-3z" fill="#0613A3"/>
<path transform="translate(430,828)" d="m0 0h23l13 3v2l6 2 8 4 10 9 10 11 10 15 8 15 4 9 4 10 2 10-4-4-4 1-5-5v-2l-3-1-10-14-2-4h-2l-5-6-11-8v-2l-4-2-5-3v-2l-9-3-5-2v-2l-7-2-8-3h-5l-1 3h-22l-8 1-10 8-4 5-6 15-1 17-3 3 4 6-3 1-16-7-19-5h-30v-1l11-1 11-7 13-13 11-15 5-13h2v-2h2l2-5 9-3 6-3 1-2 18-5 8-2z" fill="#1D87E1"/>
<path transform="translate(1807,1095)" d="m0 0h36v148l-4 1h-31l-1-1-1-11v-116z" fill="#1D87E1"/>
<path transform="translate(312,924)" d="m0 0h6l10 7 4 8v12l-2 7-1 6 7-2 12-2 32 1 13 4 16 8 8 9 8 13 4 11 3 12 3 19 3 16 7 30 8 20 10 18 7 8v2l3 1 5 6 11 9 13 8 8 4 7 2 3-3v-7h-2l-5-12-4-5-4-4-9-11-9-15 1-3 11 18 12 13 9 8 6 5 13 9 17 10 16 8 8 5v1h-12l-22-4-16-3-19-7-16-8-13-9-10-8-7-9-8-11-5-9-4-8-5-12-7-22-2-12-4-15-7-25-7-16-6-9-8-7-9-5h-4v-2h-2v-2l-18-3-3-1h-9l1 5 1 3-18-6h-6l-7 3-10 3-7 1h-18l-9-3-7-5-6-10-3-7v-16l5-12 4 1 1 13 3 8 8 10 4-8-2-10 3-9 7-6zm-3 3-5 2-5 4-3 5-1 6 2 7 7 7 4 2h7l8-6 5-7-1-7-5-8-7-4z" fill="#176BCF"/>
<path transform="translate(245,994)" d="m0 0h7l55 17 15 4 2-5 7-6 6-2h12l10 5 6 9 1 3v11l-5 10-7 6-7 2h-9l-12-3-8 6-12 11-8 7-10 9-11 10-4 3v14l-4 6-6 4-6 1-8-3-5-6-1-3v-7l3-6 5-4-3-11-11-40-4-15v-5l4-2 3 8 14 51 3 12 14 1 17-17 11-9 13-12 9-8h2l-3-9-1-10-38-11-33-10-8-3 2-2z" fill="#0E4CC1"/>
<path transform="translate(436,725)" d="m0 0h18l10 3 11 7 16 11 11 8 14 8 15 6 24 5 14 2 20 4 13 5 11 7 7 6 4 5v2h3v2h2l5 6v3l3-1 5 8v2l3 1 3 9 3 13v11l-4-2-7-10-13-23-8-11-5-6-13-10-13-5-10-2-40-2-15-3-12-5-12-9-7-7v-2h-2l-7-8-2-4-4-2-10-7-9-4-5-1h-19l-12 3-19 8-16 8-17 9-13 5-3-1 2-3 9-3 24-15 15-9 16-8z" fill="#0E4BC1"/>
<path transform="translate(445,717)" d="m0 0h8l7 2 10 5 6 4v2l4 1 4 4 9 5 1 2 4 2v2l5 2 10 5 12 5 5 2 19 2 13 2 18 2 24 8 8 3 7 3 8 11 10 17 7 14v2h-2l-5-9h-3l-3-5-2-4h-2v-2h-3l-8-10-14-9-13-5-24-5-21-3-16-4-16-7-16-10-13-10-13-8-8-5-8-2h-18l-16 4-16 8-15 9-24 15-4 2-3-1 14-8 4-5h2v-3l5-3 7-4 6-4 2-2 5-2 3-2 5-1 4-4h3l3-3 5-2 8-2z" fill="#1E88E2"/>
<path transform="translate(288,763)" d="m0 0h4v2l4 1 1 2-3 1h-2v4l-9 7-3 4v5l5-2 5-3 13-1 13 6 3 3 2 7 3 1 2 5 1 5h10l3 5 6 2 6-3 6 1v2l-16 7-14 7-17 4h-19l-13-4-8-7-3-7-1-13 2-11 9-17zm9 24-8 3-5 7v10l4 7 4 3 9 1 9-3 5-6 1-2v-8l-4-7-5-4z" fill="#176ACF"/>
<path transform="translate(434,1030)" d="m0 0 2 4 4 19 3 14 2 6v5l3 1 3 12 3 6 7 1 1-4 10-2 7 5 5 5 2 1-3-5 1-4 5 12 8 13 10 12v2l3 1 4 5 4 9v3h2l1 8-4 3-9-3-11-6-12-8-9-8v-2l-3-1-9-11-6-9-8-15-6-16-7-30-3-16z" fill="#1D87E1"/>
<path transform="translate(494,821)" d="m0 0 5 2 13 8 7 5v2l6 3v2h2l7 8 10 13 8 13 8 14 8 18 8 22 15 53 1 6-3-4-3-10-2-7-4-4v-2l-4-2-1-6-4-3-1-7h-2l-3-9-3-5-1-4-2 3h-5l-2-9-4-8-7-20-3-7-1-8h-2l-9-19-6-11-3-4-3-5-2-4-3-1-5-5-10-7z" fill="#176ACE"/>
<path transform="translate(661,950)" d="m0 0 3 1 7 9 9 10 10 11 6 9v11l-8 11-13 8-18 7-5-2-11 1-3 1h-12l-12-6-10-8-4-5 1-2 5 6 2 1v2l5 2 9 6 7 1-2-7h-2l2-5 5-2h4l7-3 3-2h5l-1 2 3 2v2l-2 1 5-1 1-2 5-1 6-5 4-5 3-8-2-1v-5l4-1v2h3v3l2-1 1-3-3-4v-3h-2v-3l-3-1-4-6-3-3v-2h-3l-1-5h-2v-3h-2z" fill="#186CCF"/>
<path transform="translate(235,1014)" d="m0 0 3 1 16 58 3 12 14 1 17-17 11-9 13-12 5-4h4l1 3-7 7-8 7-10 9-8 7-12 11-4 3v14l-4 6-6 4-6 1-8-3-5-6-1-3v-7l3-6 5-4-3-11-11-40-4-15v-5z" fill="#071CA7"/>
<path transform="translate(332,840)" d="m0 0 10 1 7 4 5 8 1 3v8l-6 10-7 4-8 2-6-1-6-4-3-3-6 2v-2h-2v-4l4-2v-9l-9-1-30-7v-2l7 1v-2l-4-2 2-1 36 9 4-6 5-4z" fill="#186CD0"/>
<path transform="translate(445,717)" d="m0 0h8l7 2 10 5 6 4v2l4 1 4 4 9 5 1 2 4 2v2l5 2 10 5 12 5 10 4-1 5-2 1 6 1-3 1-15-5-15-8-13-9-11-8-11-7-8-5-8-2h-18l-16 4-16 8-15 9-24 15-4 2-3-1 14-8 4-5h2v-3l5-3 7-4 6-4 2-2 5-2 3-2 5-1 4-4h3l3-3 5-2 8-2z" fill="#186BCF"/>
<path transform="translate(1148,1096)" d="m0 0 2 1v142h2v2h11v-2h17l2 1h7l1-1 50-1 25-1h-26l1-3 9-2 7-2 4 1 8 1 7-2 2 3h-2l-1 3h-6v2l6-1-1 3-6 3-9 1h-109l-1-1z" fill="#1768CE"/>
<path transform="translate(487,1101)" d="m0 0 4 5 8 13 12 13 9 8 6 5 13 9 17 10 16 8 8 5v1h-12l-22-4-16-3-19-7-8-4 3-2 11 3 3-3v-7h-2l-5-12-4-5-4-4-9-11-9-15z" fill="#1769CE"/>
<path transform="translate(196,852)" d="m0 0h10l6 4 3 3 1 3v9l-5 7-10 3-9-3-4-5-1-3v-8l4-7z" fill="#0E4DC2"/>
<path transform="translate(296,783)" d="m0 0h7l8 4v2l3 1 5 10v13h-2l-2 5-4 8h-2v2l-2 1h-9l-16-8-2-3-1-5-1-3v-4l-2-1 3-5 3-8 3-3h2v-2zm1 4-8 3-5 7v10l4 7 4 3 9 1 9-3 5-6 1-2v-8l-4-7-5-4z" fill="#0E4CC1"/>
<path transform="translate(432,824)" d="m0 0h12l9 1 15 5 14 8v2l4 2 4 3v2h2v2h2l4 5v2h2l10 15 10 19 10 23 6 15 7 20 8 23 8 20 3 9-3-3-7-16-10-28-7-18-6-18-8-19-8-16-8-14-8-11-9-10-8-7-14-7v-2l-15-2h-21l-11 1-18 5-8 1-1 3-10 5h-5l-2 5h-2l-1 2v-6l3-3 5-1 14-7 20-7z" fill="#0E4BC1"/>
<path transform="translate(1433,1110)" d="m0 0 2 2v113l-2 3-4-2-1-4 1-12-1-30 1-30 2-19 1-18z" fill="#186BCF"/>
<path transform="translate(1345,1237)" d="m0 0h25l40 1 10 1-2 4-8 1h-88l-5-1 2-1-2-4z" fill="#1667CD"/>
<path transform="translate(356,967)" d="m0 0 11 1 1 1 13 2 15 5 9 7 7 6 8 13 6 15 5 17 5 19 2 12 3 9 5 17 6 13 10 18v2l3 1 1 4h2l7 8 7 7 14 10 7 4-3 1-14-9-14-11-7-9-8-11-5-9-4-8-5-12-7-22-2-12-4-15-7-25-7-16-6-9-8-7-9-5h-4v-2h-2v-2l-18-3-3-1h-9l1 5 1 3-9-3-7-2 1-3 5-2z" fill="#0E4BC1"/>
<path transform="translate(434,734)" d="m0 0h19l10 3 10 6 8 6 5 6v2l4 2v2h2l7 8 12 9 12 5 15 3 40 2 5 1v1l-28-1-31-2-10-2-13-8-10-9-3-3v-2l-4-2v-2l-3-1-5-7v-2l-4-2-7-5-1-2-12-4h-17l-14 4-5 2-4-1 17-6z" fill="#1B7AD9"/>
<path transform="translate(565,774)" d="m0 0 17 1 5 1 4 2 10 3h8l7 3 9 4 8 13 8 14 3 9h-2l-5-9h-3l-3-5-2-4h-2v-2h-3l-8-10-14-9-13-5-24-5z" fill="#186ED1"/>
<path transform="translate(221,772)" d="m0 0 7 1 6 4 2 3v7l-7 8-5 1-7-3-4-5-1-5 4-8z" fill="#0E4EC2"/>
<path transform="translate(203,1053)" d="m0 0 9 1 5 6v8l-6 7h-8l-6-4-2-4v-7l5-6z" fill="#0718A5"/>
<path transform="translate(776,1231)" d="m0 0h11l10 1 7 2 1 2-2 1 1 4v2l-6 1h-29l-2-2v-4l6 1v-5z" fill="#186DD0"/>
<path transform="translate(128,943)" d="m0 0 8 1 5 4 1 2v7l-3 5-5 3-8-1-6-6v-8l5-6z" fill="#0719A6"/>
<path transform="translate(1528,1195)" d="m0 0h1l1 22v26l-3 1h-33l-1-2 9-1 3-3 8-1 6-1 1-5 2-6 5-2 1-5-4-4 1-2h2v-7l-1-5z" fill="#186DD0"/>
<path transform="translate(174,980)" d="m0 0 6 2 5 5 17 1 4 2-2 2-18 1-7 6-5 1-5-3-3-7 3-6z" fill="#071AA6"/>
<path transform="translate(1668,1231)" d="m0 0h6l2 2 1 2h2l-1 8-3 1h-35l-1-2 2-4 3-1h17l3-1v-3z" fill="#186CCF"/>
<path transform="translate(330,934)" d="m0 0 3 3 1 4v11l-1 8 11-2 6-1h20l17 3 10 4 10 6 3 2-1 2-16-8-13-4-32-1-12 2-1 1h-6l-1-4 2-3 1-12v-6z" fill="#1E88E2"/>
<path transform="translate(245,994)" d="m0 0h7l39 12 3 5-2 1-3-1-8-1-33-10-8-3 2-2z" fill="#0F4FC3"/>
<path transform="translate(432,824)" d="m0 0h12l9 1 2 1v2l6 1-3 1-7-1h-21l-11 1-18 5-8 1-1 3-10 5h-5l-2 5h-2l-1 2v-6l3-3 5-1 14-7 20-7z" fill="#0E4BC1"/>
<path transform="translate(583,790)" d="m0 0 8 1 12 5 13 11 8 10 8 13 11 19 5 7 2 1 2-2v20l-1 7h-2l-1-18-7-14-5-8-11-19-7-10-3-1-4-5v-2l-4-2-7-5-10-4-5-1v-2z" fill="#176BCF"/>
<path transform="translate(280,920)" d="m0 0h2l-1 6v20l4 5 2 1 2-14 3-7 7-6 12-3 7 1v1l-15 3-5 2-4 5-2 8 2 10-3 4v4l-4-2-8-11-2-6v-13l-3-1 1-3z" fill="#1E88E2"/>
<path transform="translate(436,1054)" d="m0 0h2l8 32 8 19 9 16 7 8v2l3 1 5 6 11 9 13 8 4 4-5-1-9-6-12-9-12-12v-2h-2l-2-4-3-3-11-19-6-16-4-13-4-14z" fill="#186BCF"/>
<path transform="translate(383,1053)" d="m0 0 3 4-2 1v9l-5 15-5 10-3 5h-2l-1 4h-3l2-7 1-5 5-9 3-1 3-12v-2l-2-1 1-6 4-2z" fill="#1D87E1"/>
<path transform="translate(885,1234)" d="m0 0 2 1-1 8-14 1h-17l-1-2 9-1-3-1-7 1-2-1v-2l6-1 4-2h10l3 1h8z" fill="#186ED1"/>
<path transform="translate(419,802)" d="m0 0h22l7 1v2h7l7 2-4 1-11-2h-30l-14 2-18 4-14 4h-3l-1 3-3-3 9-3 10-3h4v-2l16-4z" fill="#135CC8"/>
<path transform="translate(363,868)" d="m0 0h2l-2 11-3 3h-2v2l-5 2-2 10-3 3h-13l1-3 9-7 10-10z" fill="#186ED1"/>
<path transform="translate(172,905)" d="m0 0 4 2 7 5-2 5-2 2h-6l-5-4-1-7z" fill="#071DA8"/>
<path transform="translate(171,813)" d="m0 0 5 1 3 3v6l-5 5-5-1-3-4 1-6z" fill="#0929AE"/>
<path transform="translate(751,1095)" d="m0 0h14l1 9-1 2h-2v2h-2v-2h-3v2h-3l-2-6 2-1-2-5z" fill="#186BCF"/>
<path transform="translate(1704,1212)" d="m0 0h13l8 1 19 1 2 2h-58l1-2 15-1z" fill="#186BCF"/>
<path transform="translate(1281,1122)" d="m0 0h1v30l-3 8-2 1v-14l1-22z" fill="#1970D2"/>
<path transform="translate(245,994)" d="m0 0h7l10 3 4 5v2l-7-1-13-4-6-2 2-2z" fill="#0820A9"/>
<path transform="translate(145,1029)" d="m0 0 5 2 2 3-1 6-4 3-6-2-1-1v-7l3-3z" fill="#071DA8"/>
<path transform="translate(942,1237)" d="m0 0 8 1 5-1h14l2 1 1 5-1 1h-32l2-1 1-2 4 1h21v-2h-25z" fill="#186FD1"/>
<path transform="translate(141,873)" d="m0 0 6 2 1 2v6l-3 3-4 1-5-4v-6z" fill="#0820AA"/>
<path transform="translate(1842,1145)" d="m0 0h1v67l-1 15h-1l-1-6v-21l1-1v-46z" fill="#186BCF"/>
<path transform="translate(455,827)" d="m0 0 7 1 9 4 11 6v2l4 2 4 3v2h2v2h2l4 5v2h2l8 12-1 2-4-5-10-13-10-10-6-4-8-3-3-2v-2l-11-3z" fill="#0E4BC1"/>
<path transform="translate(427,826)" d="m0 0h20l12 2 2 2-10-1h-21l-11 1-18 5-3-1 18-6z" fill="#186BCF"/>
<path transform="translate(1168,1232)" d="m0 0h15l13 1-1 3-11 2-13-1-2-2 2-1z" fill="#186BCF"/>
<path transform="translate(1642,1239)" d="m0 0 11 1-1 2h18l-2-2h10v3l-3 1h-35l-1-2z" fill="#1E8EE4"/>
<path transform="translate(583,790)" d="m0 0 8 1 12 5 13 11 1 5h-2l-4-5v-2l-4-2-7-5-10-4-5-1v-2z" fill="#1B7AD8"/>
<path transform="translate(479,749)" d="m0 0h2l5 6v2l4 2v2h2l7 8 12 9 9 4-4 1-10-5-8-6-6-7-5-5-8-10z" fill="#186BCF"/>
<path transform="translate(1792,1240)" d="m0 0 1 2 2 1-1 1h-34l-2-2 17-1z" fill="#1A75D5"/>
<path transform="translate(280,920)" d="m0 0h2l-1 6v18l-2 2-2-5v-13l-3-1 1-3z" fill="#1D87E1"/>
<path transform="translate(1386,1232)" d="m0 0h14l6 1v2h-3l-1 2-20-1-3-2z" fill="#186BCF"/>
<path transform="translate(294,977)" d="m0 0h24v2l-7 1h-18l-3-2z" fill="#1157C6"/>
<path transform="translate(1035,1095)" d="m0 0 2 1-1 1v23l1 4-1 1-1 28h-1v-57z" fill="#2095E8"/>
<path transform="translate(1281,1195)" d="m0 0h1v30l-1 2-3-1 2-23z" fill="#186ED0"/>
<path transform="translate(391,837)" d="m0 0 2 1-7 4-4 2h-5l-2 5h-2l-1 2v-6l3-3 5-1 6-3z" fill="#145FC9"/>
<path transform="translate(353,765)" d="m0 0 3 1-1 1 2 2-12 3h-7v-3l5-1z" fill="#186BCF"/>
<path transform="translate(299,849)" d="m0 0 9 1 7 2-3 3h-10z" fill="#1055C5"/>
<path transform="translate(617,812)" d="m0 0 5 5 8 13 4 7-1 2-8-11-8-14z" fill="#1E88E2"/>
<path transform="translate(263,998)" d="m0 0 9 2 2 1v4l2 1-4 1-7-2-1-5z" fill="#0D43BC"/>
<path transform="translate(729,1094)" d="m0 0 7 1-2 1 1 3-2 3v5l-3-1-2-6v-5z" fill="#1971D2"/>
<path transform="translate(434,1030)" d="m0 0 2 4 4 19 2 14-2-2-3-12-3-16z" fill="#1E88E2"/>
<path transform="translate(1528,1195)" d="m0 0h1l1 25-5-5v-3h2v-7l-1-5z" fill="#186BCF"/>
<path transform="translate(334,1096)" d="m0 0h5v2l-5 2-4 4h-3l-1 3-4-1 5-5z" fill="#1053C5"/>
<path transform="translate(292,1007)" d="m0 0 6 1 2 4v3l-12-3 2-3v2l3-1z" fill="#1052C4"/>
<path transform="translate(387,809)" d="m0 0h5l-4 2-17 5h-3l-1 3-3-3 9-3z" fill="#0E4BC1"/>
<path transform="translate(565,774)" d="m0 0 17 1 5 1 2 3-10-1-14-3z" fill="#186BCF"/>
<path transform="translate(584,966)" d="m0 0h2l5 18 1 6-3-4-3-10-2-7z" fill="#186BCF"/>
<path transform="translate(1642,1239)" d="m0 0 11 1-4 1v2l-9 1-1-2z" fill="#1C7FDC"/>
<path transform="translate(284 1e3)" d="m0 0 7 1 3 5-2 1-5-1 1-3-7-1z" fill="#071AA6"/>
<path transform="translate(455,827)" d="m0 0 7 1 9 4 4 4h-3l-6-3v-2l-11-3z" fill="#1155C5"/>
<path transform="translate(541,770)" d="m0 0h9l14 3v1h-9l-14-3z" fill="#186BCF"/>
<path transform="translate(645,845)" d="m0 0h3l2 6 1 1v6l-1-3h-2l-3-7z" fill="#0613A3"/>
<path transform="translate(333,898)" d="m0 0 14 1v1l-12 1h-15v-1l11-1z" fill="#1B7EDB"/>
<path transform="translate(1433,1110)" d="m0 0 2 2v10l-3 1v-10z" fill="#1972D3"/>
<path transform="translate(1792,1240)" d="m0 0 1 2 2 1-1 1-13-1 2-2z" fill="#186BCF"/>
<path transform="translate(606,801)" d="m0 0 4 1 6 5 1 5h-2l-4-5v-2l-4-2z" fill="#1B7DDB"/>
<path transform="translate(884,1237)" d="m0 0h3l-1 6h-6l1-5z" fill="#1E89E2"/>
<path transform="translate(297,1009)" d="m0 0 5 1 3 3v3l-5-1z" fill="#0821AA"/>
<path transform="translate(374,842)" d="m0 0 5 1-2 1-2 5h-2l-1 2v-6z" fill="#1157C6"/>
</svg>
