<?xml version="1.0" encoding="UTF-8"?>
<svg version="1.1" viewBox="0 0 1600 1600" width="500" height="500" xmlns="http://www.w3.org/2000/svg">
<path transform="translate(836,417)" d="m0 0h46l23 3 25 6 20 6 16 7 19 10 21 14 16 13 12 11 12 12 7 8 12 16 14 21 12 22 6 14 6 20 2 22v18l-3 25v27l4 17 7 17 7 11 10 13 11 11 14 16 6 9 1 3v10l-6 11-7 7-14 8-21 8-11 6-3 1-4 10v10l5 15v8l-8 6-15 5v2l8 9 1 7-7 9-6 9-3 10v10l3 16 4 18v16l-5 12-8 10-11 7-19 7-19 3h-14l-34-4-22-4h-6l-13 12-8 11-6 13-2 11v11l3 16 7 16 8 12 12 15v3l-17 10-17 8-15 5-18 4-12 2h-37l-20-4-24-7-20-8-16-8-15-8-13-8-14-9-16-12-19-12-19-10-16-7-23-6-12-2h-35l-29 5-9 2h-6l-3-6 2-8 7-11 9-9 7-8 13-12 42-33 17-13 17-12 18-13 33-22 14-10 12-8 11-8 11-9 12-11 7-7 13-18 7-14 5-16 1-14-2-13-8-16-7-8-13-9-19-9-10-3h-9l-18 5-8 2-3 1h-28l-10-5-9-9-6-10-3-10v-14l4-13 6-11 13-13 23-11 10-3 9-2 15-1 10-6 13-12 8-8 12-17 7-15 3-12v-10l-2-5-2-10-5-7-3-1h-10l-13 5-12 7-17 6-19 4h-20l-12-3-8-5-7-8-4-10-1-11 4-16 5-12 7-11 8-10 9-10 12-11 10-8 16-11 15-9 24-12 25-10 19-6 19-5 24-4zm-182 113-6 3-6 7-2 5v8l5 10 6 5 5 2h10l8-4 6-8 2-9-3-9-6-7-6-3zm20 179-7 1-8 7-3 5v13l5 8 6 5 3 1h10l8-4 6-7 1-3v-13l-4-8-6-4-4-1z" fill="#0618A0"/>
<path transform="translate(836,417)" d="m0 0h46l23 3 25 6 20 6 16 7 19 10 21 14 16 13 12 11 12 12 7 8 12 16 14 21 12 22 6 14 6 20 2 22v18l-3 25v27l3 15-3 6 1 6 7 13 4 5 6 9 3 4v2h2l6 8 8 9v2h2l-1 3 4 8h1v7l-3 6-6 6-18 4-11 5-14 4-8 5-6 3-5 3-3 3 7 1h16l4 2-14 1-13-2-12-5-9-7-7-8-6-10-7-16-8-31-10-36-11-32-13-29v-2h-2l-6-12v-2h-2v-3h-2l-1-5-3-1v-3l-3-1-10-13-15-15-9-7-14-10-16-8 5 5 10 9 8 8 11 15 12 21 8 18 5 11 11 33 20 72 12 36 10 22 7 11 5 6v2h2v2l18 9 14 2 14-2 6-1v2l-11 4-4 1h-21l-11-4-12-7-9-9-10-15-9-16-9-19-11-28-12-34-4-11h-3l-14-20-13-19-11-13-7-8-16-16-16-11-13-8-16-7-11-3-7-1h-18l-12 4-10 6-6 5-7 11-3 7-3 11-2 22v10 3l5 4 5 2v2l4 1 6 5 4 2 3 4 5 3 6 6 2 4 6 5 4 7 5 4 4 7 1 3h2v3h2l2 7h2l8 17 4 8 10 31 15 65 2 5 2 9 4 10 4 11 7 13 12 20 13 15 6 6v2l4 2 10 9 8 7 1 3 4 1v3l-6 3-2 6 2 1-8 2h-6l-19-9-14-9-11-9-5-4-7-8-4-5v-2h-2l-13-19-11-23-9-35-6-32-6-31-7-24-8-16-8-11-1-3-4-2-11-8-15-6-16-4h-31l-15 3-16 5h-2l2-5 6-10 1-3v-13l-3-9-8-9-6-3-5-1h-8l-10 3-7 6-5 9v18l7 14v2l-5-2-4-4-4-1-9-16-3-11 1-12 1-6-6 11-3 4-1-3 7-13 13-13 23-11 10-3 9-2 15-1 10-6 13-12 8-8 12-17 7-15 3-12v-10l-2-5-2-10-5-7-3-1h-10l-13 5-12 7-17 6-19 4h-20l-12-3-8-5-7-8-4-10-1-11 4-16 5-12 7-11 8-10 9-10 12-11 10-8 16-11 15-9 24-12 25-10 19-6 19-5 24-4zm-182 113-6 3-6 7-2 5v8l5 10 6 5 5 2h10l8-4 6-8 2-9-3-9-6-7-6-3z" fill="#1D8CE3"/>
<path transform="translate(903,573)" d="m0 0 9 3 14 8 11 9 10 8 15 15 8 11 2 1 1 3 3 3v3h2v3h2l6 12v2h2l11 24 9 24 8 25 13 48 3 12 9 19 8 10 7 6 12 6 6 2 17 1 3-1h-16l-7-2 1-3 6-3 4-3 6-3 7-4 12-3 11-5 20-4 2-5 2-1 2-5v-5l-2-3-3-8h2v-2h-2l-6-8-8-9v-2h-2l-10-15-7-10-5-11v-5h2l2-4 9 21 11 16 11 12 15 16 10 14 1 3v10l-6 11-7 7-14 8-21 8-11 6-3 1-4 10v10l5 15v8l-8 6-15 5v2l8 9 1 7-7 9-6 9-3 10v10l3 16 2 11-6-1v-9h-2l-3 9-4 4h-2l1 5-3 6h-9l-14-2h-14l-27-1-13-5-9-5-8-10-9-4-3 1 1 4h-6l-2 5 6 2 6 8v2l5 2 6 4 5 2v2l6 1 7 3v2l6 2 3 2 2 5 15 7 21 8 7 2 3 3-5 2v-2l-24-1-24-4-32-8-24-8v-2l-6-1-7-3v-2l-5-1-2-1v-2l-5-1v-2l-5-1v-2h-3l-1-2-7-4-14-13-3-4v-2l-4-2-10-15-1-4h-2l-7-13-5-13-10-30-7-29-8-32-6-18-9-17-11-13-10-7-16-8-12-3-11-1h-13l-18 1v2l-9 1-18 5-8 2-3 1h-28l-10-5-9-9-6-10-3-10v-14l3-10h2l6-12 3-2-1 7-1 12 4 13 7 12v2l5 1 8 6-8-16v-18l6-10 7-6 10-3h8l9 3 8 7 4 6 2 7v13l-5 10-5 8 10-4 16-4 7-1h31l19 5 12 5 11 8 5 5 8 10 8 15 6 20 5 22 8 43 5 21 6 21 11 23 11 15v2h2l7 9 5 6 11 9 10 7 10 6 17 8h7l5-1 1-7 7-4-1-2-3-1-7-8-11-9-5-4-7-8-9-10-7-10-10-17-6-11-5-13-4-11-2-8-6-25-10-43-10-31-8-16-3-9h-2l-2-4v-3h-2v-3h-2l-5-7v-3l-4-2-5-6-3-5-5-4-3-5-5-5-5-3-2-3-5-3-5-4-3-1v-2l-5-1-3-2v-2l-4-2 1-6 1-21 3-16 8-16 5-6 11-8 12-5 4-1h18l15 3 15 6 14 8 13 9 9 7 20 20 11 14 8 11 13 19 6 8v2h2l1-3 14 40 10 26 10 23 10 19 10 15 9 10 11 7 9 4 4 1h21l13-4h2v-2l-11 3-10 1-16-3-11-6-4-3v-2h-2l-8-11-9-16-10-25-9-28-17-62-10-32-7-18-7-15-9-17-10-15-9-11-11-11-10-8zm-229 136-7 1-8 7-3 5v13l5 8 6 5 3 1h10l8-4 6-7 1-3v-13l-4-8-6-4-4-1z" fill="#1463CD"/>
<path transform="translate(831,462)" d="m0 0h20l13 3 12 6 9 7 4 4v2l3 1 3 4v2h2l7 8 5 6 2 1v2l4 2 9 7 15 7 9 3 21 2 47 3 14 3 9 4 10 6 8 7v2l3 1v2h2l10 13 15 26 10 17 6 9h2v18l-3 25v27l3 15-3 6 1 6 7 13 4 5 6 9 3 4v2h2l6 8 8 9v2h2l-1 3 4 8h1v7l-3 6-6 6-18 4-11 5-14 4-8 5-6 3-5 3-3 3 7 1h16l4 2-14 1-13-2-12-5-9-7-7-8-6-10-7-16-8-31-10-36-11-32-13-29v-2h-2l-6-12v-2h-2v-3h-2l-1-5-3-1v-3l-3-1-10-13-15-15-9-7-14-10-16-8-5-2-14-8-24-8-16-3-1-1-19-1h-15v2l-30 5-20 5-10 3h-9l-5-3h-3v-2h-13l-10-2-7 2-8 1-5 6-3 1-1-3 1-5v-14l-3-8-2-6-4-2-5-4-7-3h-14l-8 4-7 7-4 9-1 15-4-2-1-9 3-9h2l1-6 7-9 7-4h5l2-4 3-2h6l4 3v2l8-4 3-2 9-2h16l22-4h4v-2l17-6 25-12 22-12 19-8 13-4z" fill="#1D8DE3"/>
<path transform="translate(761,790)" d="m0 0 6 2 6 4 8 8 9 14 8 15 10 28 12 37 11 29 11 23 10 16 8 10 11 12 12 10 14 9 22 12 7 4 13 4-4 1-26-6-24-5-28-4h-38l-23 4-22 8-13 8-10 8-10 9-10 10-12 17-14 22-4 8-9 4-7-4v-2l-5-2v-2l-4-2-6-2-1-2-10-2-1 3-3 1-22-10-23-6-12-2h-35l-29 5-9 2h-6l-3-6 2-8 7-11 9-9 7-8 13-12 42-33 17-13 17-12 18-13 33-22 14-10 12-8 11-8 11-9 12-11 7-7 13-18 7-14 5-16 1-14-2-13-8-16-3-3z" fill="#1462CC"/>
<path transform="translate(821,578)" d="m0 0h28l16 4 19 9 11 9 4 3v2l3 1 7 8 10 13 9 15 12 23 11 26 8 21v5h-2l-14-20-13-19-11-13-7-8-16-16-16-11-13-8-16-7-11-3-7-1h-18l-12 4-10 6-6 5-7 11-3 7-3 11-2 22v10 3l5 4 5 2v2l4 1 6 5 4 2 3 4 5 3 6 6 2 4 6 5 4 7 5 4 4 7 1 3h2v3h2l2 7h2l8 17 4 8 10 31 15 65 2 5 2 9 4 10 4 11 7 13 12 20 13 15 6 6v2l4 2 10 9 8 7 1 3 4 1v3l-6 3-2 6 2 1-8 2h-6l-19-9-14-9-11-9-5-4-7-8-4-5v-2h-2l-13-19-11-23-9-35-6-32-6-31-7-24-8-16-8-11-1-3-4-2-11-8-15-6-16-4h-31l-15 3-16 5h-2l2-5 6-10 1-3v-13l-3-9-8-9-6-3-5-1h-8l-10 3-7 6-5 9v18l7 14v2l-5-2-4-4-4-1-9-16-3-11 1-12 1-6-6 11-3 4-1-3 7-13 13-13 23-11 10-3 9-2 15-1 10-6 13-12 8-8 12-17 7-15 3-12 28-13 19-7z" fill="#23A9FC"/>
<path transform="translate(634,702)" d="m0 0 1 4-2 10 1 10 5 12 5 8v2l5 1 8 6-8-16v-18l6-10 7-6 10-3h8l9 3 8 7 4 6 2 7v13l-5 10-5 8 10-4 16-4 7-1h31l19 5 12 5 11 8 5 5 8 10 8 15 6 20 5 22 8 43 5 21 6 21 11 23 11 15v2h2l7 9 5 6 11 9 10 7 10 6 17 8h7l5-1 1-7 7-4-1-2-3-1-7-8-11-9-5-4-7-8-9-10-7-10-10-17-6-11-5-13-4-11-2-16 3 1v-2l5 2-2-4-2-1 2-3h3l2 5h5l2-5 9-3 1 4 6 2 4 2 6 1 3 1v-3l-10-3-1-4 1-4 6 2v-2h10l-2 2-4 2 1 4 1-2 4 2 3 3h2v-2l9-2h4l1 3h5l-2-6 3-2 2 6 1 5 3 3 5 12 8 11 10 5 15 3h19l40-7 15-4 5-1 8 9 1 7-7 9-6 9-3 10v10l3 16 2 11-6-1v-9h-2l-3 9-4 4h-2l1 5-3 6h-9l-14-2h-14l-27-1-13-5-9-5-8-10-9-4-3 1 1 4h-6l-2 5 6 2 6 8v2l5 2 6 4 5 2v2l6 1 7 3v2l6 2 3 2 2 5 15 7 21 8 7 2 3 3-5 2v-2l-24-1-24-4-32-8-24-8v-2l-6-1-7-3v-2l-5-1-2-1v-2l-5-1v-2l-5-1v-2h-3l-1-2-7-4-14-13-3-4v-2l-4-2-10-15-1-4h-2l-7-13-5-13-10-30-7-29-8-32-6-18-9-17-11-13-10-7-16-8-12-3-11-1h-13l-18 1v2l-9 1-18 5-8 2-3 1h-28l-10-5-9-9-6-10-3-10v-14l3-10h2l6-12zm40 7-7 1-8 7-3 5v13l5 8 6 5 3 1h10l8-4 6-7 1-3v-13l-4-8-6-4-4-1z" fill="#0B45BE"/>
<path transform="translate(652,962)" d="m0 0h3v3l-9 6-5 3-4 5-9 6 2 5 9 7 9 6 10 5 7 4 2 3 6 1 10-7h2v-2l8-6 1-2h3l5-5 8-7 11-13h2l1-4 1-1h6l-2 1v3h-2v3l5 1 1-2 8-1 38 19 29 12 7 2v2l4 1 34 1v1l-34 1-23 4-22 8-13 8-10 8-10 9-10 10-12 17-14 22-4 8-9 4-7-4v-2l-5-2v-2l-4-2-6-2-1-2-10-2-1 3-3 1-22-10-23-6-12-2h-35l-29 5-9 2h-6l-3-6 2-8 7-11 9-9 7-8 13-12 42-33 17-13 4-3 4-1 11-6h2l1-3 5-3 7-6z" fill="#0D31BF"/>
<path transform="translate(586,573)" d="m0 0h8l7 4 6 7 2 10 64 16 11 2 2-5 7-6 8-3h8l10 4 7 7 3 5 1 13-4 10-9 8-12 3-11-3-8-7-5 1-23 11-47 23-12 6v10l-4 8-5 4-9 3v9l-4 40-1 15 6 4 6 7 1 3v8l16 4 43 13 37 11 4-1 5-7 9-6 8-2h10l10 4 7 6 5 9 2 6v10l-4 10-7 8-8 5-7 1h-9l-10-3-6-2-11 9-7 7-8 7-20 18-11 9-8 8-3 2 2 8-1 10-5 8-5 3-4 1h-10l-7-4-6-8-1-3v-8l4-8 6-7-13-48-14-50v-3l-10-1-8-6-4-8v-2l-10 1-24 1-8 7h-8l-6-5-1-2v-9l3-5 6-3 6 1 5 3 2 5 35-1 4-8 6-5 7-3 2-12 2-24 2-21v-7l-6-4-5-6-1-5-40 1-6 1-5 5-3 2-7-1-6-5-1-2v-9l4-5 4-2h8l5 4 2 4h28l17-1 1-5 8-9 8-1 2-26 2-16v-11l-6-4-5-6-1-3v-13l4-6 6-5zm20 28-4 6-4 3-7 3-3 19-2 21-1 11 8 6 2 2 5-1 19-10 16-8 27-13 18-8 2-2-1-10-62-16-10-3zm-19 195-5 6-4 4 11 41 12 43 5 17 1 1 15 3 16-15 12-11 8-7 12-11 8-7 12-10-1-5-3-10v-9l-56-17-42-13z" fill="#0B47BF"/>
<path transform="translate(836,417)" d="m0 0h46l23 3 25 6 20 6 16 7 19 10 21 14 16 13 12 11 12 12 7 8 12 16 7 11-4-2-5-4v-2l-6-2-10-7-6-3v-2l-11-3-14-4-51-8-21-6-17-8-21-14-18-13-10-7-14-7-8-2h-21l-16 4-16 7-17 9-20 13-18 11-16 8-15 4-7 1h-26l-22-3h-6-3l11-10 10-8 16-11 15-9 24-12 25-10 19-6 19-5 24-4z" fill="#57BDF3"/>
<path transform="translate(903,573)" d="m0 0 9 3 14 8 11 9 10 8 15 15 8 11 2 1 1 3 3 3v3h2v3h2l6 12v2h2l11 24 9 24 8 25 13 48 3 12 9 19 8 10 7 6 12 6 6 2 17 1 3-1h-16l-7-2 1-3 6-3 4-3 6-3 7-4 12-3 11-5 20-4 2-5 2-1 2-5v-5l-2-3-3-8h2v-2h-2l-6-8-8-9v-2h-2l-10-15-7-10-5-11v-5h2l2-4 9 21 11 16 11 12 15 16 10 14 1 3v10l-6 11-7 7-14 8-21 8-11 6-3 1-2 5-3 7-5 1-6 3-3-1h2v-2l-11 3-10 1-16-3-11-6-4-3v-2h-2l-8-11-9-16-10-25-9-28-17-62-10-32-7-18-7-15-9-17-10-15-9-11-11-11-10-8z" fill="#1462CC"/>
<path transform="translate(826,550)" d="m0 0 19 1 6 2 15 3 20 7 14 8 9 7 12 11 7 7 11 15 12 21 8 18 5 11 11 33 20 72 12 36 10 22 7 11 5 6v2h2v2l18 9 14 2 14-2 6-1v2l-11 4-4 1h-21l-11-4-12-7-9-9-10-15-9-16-9-19-11-28-12-34-14-37-9-21-12-25-11-18-10-13-3-3v-2l-3-1-3-3v-2l-4-2-11-9-19-9-16-4h-28l-20 4-24 9-19 9-3 1-1-10-2-5-2-10-6-9 7-3 25-7 28-5h7v-2z" fill="#0618A0"/>
<path transform="translate(821,578)" d="m0 0h28l16 4 19 9 11 9 4 3v2l3 1 7 8 10 13 9 15 12 23 11 26 8 21v5h-2l-14-20-13-19-11-13-7-8-16-16-16-11-13-8-16-7-11-3-7-1h-18l-12 4-10 6-6 5-7 11-3 7-3 11-2 22v10 3l2 2-5-1-12-6-17-6-10-2-17-1-2 1h-26l-8-1v-1l9-2 15-1 10-6 13-12 8-8 12-17 7-15 3-12 28-13 19-7z" fill="#1D8CE3"/>
<path transform="translate(652,962)" d="m0 0h3v3l-9 6-5 3-4 5-9 6 2 5 9 7 9 6 10 5 7 4 2 3 6 1 10-7h2v-2l8-6 1-2h3l5-5 8-7 11-13h2l1-4 1-1h6l-2 1v3h-2v3l5 1 1-2 8-1 38 19 29 12 7 2v2l4 1 34 1v1l-34 1-23 4-22 8-13 8-10 8-10 9-2 2h-6l-8-5-8-2v-2l-6-1-22-13-4-1-5-3-7-2-4-2-13 8-16 7-27 9-15 4h-9l-5-5-11-8-2-2 1-4h2v-2l4-1 2-5h2l1-3h2l2-4 4-2 1-5h2l-2-6 17-13 8-6 4-1 11-6h2l1-3 5-3 7-6z" fill="#0B44BE"/>
<path transform="translate(788,757)" d="m0 0 5 2 11 8 8 10 2 5 3 1 1 5h2l4 5h2l1-4 3-1 2 1-4-16-3-7h4v2h2l2 5 2 1 6 11 7 14 3 9h2l7 21 5 21 5 18 6 23 5 14 8 16 5 7 3 1 11 19 13 15 6 6v2l4 2 10 9 8 7 1 3 4 1v3l-6 3-2 6 2 1-8 2h-6l-19-9-14-9-11-9-5-4-7-8-4-5v-2h-2l-13-19-11-23-9-35-6-32-6-31-7-24-8-16-8-11-1-3-4-2-11-8z" fill="#1E8EE4"/>
<path transform="translate(634,702)" d="m0 0 1 4-2 10 1 10 5 12 5 8v2l5 1 8 6-8-16v-18l6-10 7-6 10-3h8l9 3 8 7 4 6 2 7v13l-5 10-5 8 10-4 16-4 7-1h31l19 5 12 5 11 8 5 5 8 10 8 15 6 20 5 22 8 43 5 21 6 21 11 23 11 15v2h2l7 9 5 6 11 9 10 7 10 6 17 8h7l5-1 1-7 7-4-1-2-3-1-7-8-11-9-5-4-7-8-9-10 1-2 7 7 7 8 11 10 11 8 15 10 23 13 16 8 17 6 13 5 7 2 3 3-5 2v-2l-24-1-24-4-32-8-24-8v-2l-6-1-7-3v-2l-5-1-2-1v-2l-5-1v-2l-5-1v-2h-3l-1-2-7-4-14-13-3-4v-2l-4-2-10-15-1-4h-2l-7-13-5-13-10-30-7-29-8-32-6-18-9-17-11-13-10-7-16-8-12-3-11-1h-13l-18 1v2l-9 1-18 5-8 2-3 1h-28l-10-5-9-9-6-10-3-10v-14l3-10h2l6-12zm40 7-7 1-8 7-3 5v13l5 8 6 5 3 1h10l8-4 6-7 1-3v-13l-4-8-6-4-4-1z" fill="#1563CD"/>
<path transform="translate(804,421)" d="m0 0 3 1v1l11 1v2l6 1 1-3h4v2h2v2h12l7 3 1 5-1 2-13 1-21 6-25 12-36 23-18 10-15 5-12 2h-26l-22-3h-6-3l11-10 10-8 16-11 15-9 24-12 25-10 19-6 19-5z" fill="#91D0F7"/>
<path transform="translate(839,451)" d="m0 0h12l12 3 14 7 19 14 13 9 14 9 16 8 13 5 18 4 38 6 21 6 15 6 11 7 11 10 11 16 13 22 5 9 4 4 3 10 2 18-4-4-8-14-14-24-10-16-6-7v-2h-2l-7-8-10-7-10-5-12-3-5-1-60-4-11-2-15-6-10-6-9-7v-2l-4-2-9-10-1-3h-2l-4-6-5-5-7-6-11-6-11-4-6-1h-20l-15 4-15 6-16 8-33 17-18 7-8 1 3-2 18-8 9-5 8-6 18-13 25-13 19-6z" fill="#0618A0"/>
<path transform="translate(586,573)" d="m0 0h8l7 4 6 7 2 10 64 16 11 2 2-5 7-6 8-3h8l10 4 7 7 3 5 1 13-4 10-9 8-12 3-11-3-8-7-5 1-23 11-47 23-8 4-2-1 7-4 4-4 5-2 1-2 5 1 1-4h4v-2l-3-2 16-8 34-16 6-3v-10l-11-2-51-13-13-4-2 5-6 5-10 3-1 5-1 3h-2l-2-10-6-4-5-6-1-3v-13l4-6 6-5z" fill="#1564CD"/>
<path transform="translate(647,502)" d="m0 0 4 1v2l27 3h29l11-2h12l-4 2-22 4h-16l-11 3-5 3-4 1-4-4h-6l-5 5-12 4-2 4-4 5-2 6h-2l-2 12 1 5 2 1 1-14 4-8 8-8 8-4h14l7 3 9 7 5 10 1 4v14l-1 6h3l2-3h2l1-3 10-2 7-1 8 2 13 1 8 4 5 1-3 3h-12l-13 5-12 7-17 6-19 4h-20l-12-3-8-5-7-8-4-10-1-11 4-16 5-12 7-11 8-10zm7 28-6 3-6 7-2 5v8l5 10 6 5 5 2h10l8-4 6-8 2-9-3-9-6-7-6-3z" fill="#1563CD"/>
<path transform="translate(502,775)" d="m0 0 6 1 5 3 2 5h35l-2 1v2l4 2 6 10v2l6 1 6 2 8 1 3 9 14 51 10 36 2 6 15 3 16-15 12-11 8-7 12-11 8-7 10-8h3l-1 8-12 11-11 10-8 7-11 10-11 9-8 8-3 2 2 8-1 10-5 8-5 3-4 1h-10l-7-4-6-8-1-3v-8l4-8 6-7-13-48-14-50v-3l-10-1-8-6-4-8v-2l-10 1-24 1-8 7h-8l-6-5-1-2v-9l3-5z" fill="#071EA3"/>
<path transform="translate(713,675)" d="m0 0 17 1 16 4 20 8 16 8v2l4 1 6 5 4 2 3 4 5 3 6 6 2 4 6 5 4 7 5 4 4 7 1 3h2v3h2l2 7h2l8 17 4 8 10 31 15 65 2 5 2 9 4 10 4 11 6 11-1 3-7-10-8-16-6-19-7-26-5-21-8-27-9-21-12-22-9-13-7-9-13-15-9-9-10-8-6-4-8-5-16-7-11-4-26-6-14-2h-9l-12-2-5-2 2-2-3-2 1-1h35z" fill="#57BDF3"/>
<path transform="translate(1104,707)" d="m0 0 2 2 7 17 7 11 10 13 11 11 14 16 6 9 1 3v10l-6 11-7 7-14 8-21 8-9 4-3-3v-1h-25l-1-2h15l3-1h-16l-7-2 1-3 6-3 4-3 6-3 7-4 12-3 11-5 20-4 2-5 2-1 2-5v-5l-2-3-3-8h2v-2h-2l-6-8-8-9v-2h-2l-10-15-7-10-5-11v-5h2z" fill="#1563CD"/>
<path transform="translate(588,613)" d="m0 0h3l-1 11-3 29-1 11 6 4 3 3 5-1 19-10 4-2h7l-2 1v2h-4l-1 4-5-1-2 4-5 3-9 5-3 4v9l-4 8-5 4-8 3-3-3-6 2-6-4-5-6-1-5-40 1-6 1-5 5-3 2-7-1-6-5-1-2v-9l4-5 4-2h8l5 4 2 4h28l17-1 1-5 8-9 8-1 2-26 2-16 2-3v2h2v-7z" fill="#1462CC"/>
<path transform="translate(884,466)" d="m0 0 5 2 14 10 5 2 1 2 7 4 10 7 6 3h4v2l7 1 1 2h7l9-2 1-1h8l9 2 19 2 5 1 14 1 23 7 2 1v2l6 2 10 7 6 3 5 5 6 5 10 17 10 19 7 20 3 15v14h-1l-2-15-3-10-1-3-3-1-10-18-13-21-9-11-10-8-10-6-15-6-24-6-44-7-18-6-16-8-13-8-16-11-12-9z" fill="#1463CD"/>
<path transform="translate(845,915)" d="m0 0 3 1 5 13 10 19 9 12v2h2l7 9 5 6 11 9 10 7 10 6 17 8h7l5-1 1-7 7-4-1-2-3-1-7-8-11-9-5-4-7-8-9-10 1-2 7 7 7 8 11 10 11 8 15 10 23 13 16 8 17 6 13 5 7 2 3 3-5 2v-2l-24-1-24-4-32-8-24-8v-2l-6-1-7-3v-2l-5-1-2-1v-2l-5-1v-2l-5-1v-2h-3l-1-2-7-4-14-13-3-4v-2l-4-2-10-15-1-4h-2l-7-13-5-13z" fill="#145FCB"/>
<path transform="translate(577,700)" d="m0 0 4 1 1 3-3 28-3 29v7l6 4 6 7 1 3v8l16 4 9 3v3l2 1-2 3-10-2-17-5-5 6-5 3-12-2-7-3-5-9-5-5v-2h2l2-7 6-7 9-4 2-12 2-24 3-29z" fill="#0B45BE"/>
<path transform="translate(653,523)" d="m0 0h14l7 3 9 7 4 8v21l-5 9-8 7-8 3h-10l-10-4-7-6-4-7-1-4-1-17 4-8 8-8zm1 7-6 3-6 7-2 5v8l5 10 6 5 5 2h10l8-4 6-8 2-9-3-9-6-7-6-3z" fill="#0C48C0"/>
<path transform="translate(532,612)" d="m0 0h10l7 4 5 6 1 3v11l-5 8-9 5h-10l-6-4-4-5-3-8 1-8 4-7 6-4z" fill="#0C49C0"/>
<path transform="translate(1019,827)" d="m0 0 5 5 7 6 9 5 12 4h12l2-4 11-3v-6l-2-1 2-1h26l2 6-5 2-2 5-3 7-5 1-6 3-3-1h2v-2l-11 3-10 1-16-3-11-6-4-3v-2h-2l-8-11z" fill="#0B45BE"/>
<path transform="translate(569,667)" d="m0 0 2 1-1 4h-2v4l-2 1v6l-4 4 2 1-1 4-2-1v-3l-40 1-6 1-5 5-3 2-7-1-6-5-1-2v-9l4-5 4-2h8l5 4 2 4h28l17-1 1-5z" fill="#0C46BE"/>
<path transform="translate(532,1054)" d="m0 0 1 3v2l6 1v3h2l1 5 5 2 7 1 5 4 7 1 8-1 20 1 6 1v1l-37 1-29 5-9 2h-6l-3-6 2-8 7-11z" fill="#071DA3"/>
<path transform="translate(562,512)" d="m0 0h8l5 3 4 5 1 8-2 6-5 5-9 2-8-3-5-8v-7l3-6 5-4z" fill="#1563CD"/>
<path transform="translate(541,866)" d="m0 0 9 2 5 5 2 5-1 9-5 6-5 2h-7l-7-4-4-8 1-8 3-5 5-3z" fill="#061CA2"/>
<path transform="translate(445,727)" d="m0 0h7l6 4 3 5 1 7-3 7-4 4-3 1h-10l-6-4-2-4v-11l5-6z" fill="#061BA1"/>
<path transform="translate(1e3 466)" d="m0 0 9 3 10 9 8 7 14 14 7 8 12 16 7 11-4-2-5-4v-2l-6-2-10-7-6-3 3-1 4 1-11-14-2-4h-2l-4-6-5-4-7-8-2-1v-2l-5-2-5-6z" fill="#23A8FB"/>
<path transform="translate(879,996)" d="m0 0 4 2 14 9 22 12 7 4 13 4-4 1-26-6-24-5-13-2 4-1v-2h2l-1-7-1-3 7 1z" fill="#0B44BE"/>
<path transform="translate(707,814)" d="m0 0h10l5 2 1-2 6 2 1 11-4 3-10 1-8-1h-9l-5 1-1-7 7-8z" fill="#1563CD"/>
<path transform="translate(531,619)" d="m0 0 12 2 5 3 3 6-1 4h2v2h-4l-1 2-3 2v1l-10 1-2 1v3l-6-4-1-4-3-2 1-6 2-5 3-5z" fill="#1462CC"/>
<path transform="translate(753,615)" d="m0 0 1 3-4 12-6 10-8 11-1 2h-2l-1 4h-2l-1 4-2 1-3 5-1 7h-15v-2l-7 1 12-9 10-9 9-9 12-17 6-12z" fill="#1564CD"/>
<path transform="translate(971,626)" d="m0 0 5 5 10 16 9 16 10 23 11 33 12 46 2 8v5l-2-3-13-48-12-36-8-20-7-15v-2h-2l-6-12v-2h-2v-3h-2l-1-5-3-1z" fill="#56BDF3"/>
<path transform="translate(588,613)" d="m0 0h3l-1 11-3 29-2 11-1-2-5 1v-13l3-27 2-3v2h2v-7z" fill="#0D4CC1"/>
<path transform="translate(670,697)" d="m0 0h9l7 2 10 6 3 3v2h2l4 9-1 4-1-2h-2l-4-8-9-8-8-2h-8l-10 3-7 6-5 9-2 10-2-1 1-8 5-12 5-6h2l2-4z" fill="#57BDF4"/>
<path transform="translate(648,520)" d="m0 0h18l10 3 8 7 2 7-3-2v-2l-4-2-5-4-7-3h-14l-8 4-7 7-4 9-1 15-4-2-1-9 3-9h2l1-6 7-9z" fill="#1E8EE4"/>
<path transform="translate(623,658)" d="m0 0h7l-2 1v2h-4l-1 4-5-1-2 4-5 3-9 5-3 4v9l-4 2-3-2v-8l1-5h2v-4l16-8z" fill="#0C4BC1"/>
<path transform="translate(1039,496)" d="m0 0 7 6 2 4h2l6 7 5 5 11 15h-3l-6-5v-2l-6-2-10-7-6-3 3-1 4 1-5-6-2-5-2-3z" fill="#1E8EE4"/>
<path transform="translate(845,915)" d="m0 0 3 1 5 13 10 19 9 12v2h2l7 9 5 6 11 9 1 3-4-2-11-9-8-9v-2l-4-2-10-15-1-4h-2l-7-13-5-13z" fill="#1259C9"/>
<path transform="translate(460,640)" d="m0 0 6 1 4 4-1 7-5 4-6-1-4-4v-6l4-4z" fill="#061CA2"/>
<path transform="translate(463,839)" d="m0 0h7l4 4v6l-4 5h-7l-5-6 1-6z" fill="#061BA2"/>
<path transform="translate(497,565)" d="m0 0h6l5 4v7l-6 5-6-1-3-4v-7z" fill="#1054C5"/>
<path transform="translate(589,790)" d="m0 0 16 4 9 3v3l2 1-2 3-10-2-16-5-1-2h3z" fill="#0824A7"/>
<path transform="translate(884,466)" d="m0 0 5 2 14 10 5 2 1 2 7 4 10 7 6 3h4v2l7 1 1 5-16-7-16-10-16-11-12-9z" fill="#125BC9"/>
<path transform="translate(633,709)" d="m0 0h1l1 16 4 9 2 4 4 3 2 4 2 1 2-4 6 11v2l-5-2-4-4-4-1-9-16-3-11z" fill="#1E8EE4"/>
<path transform="translate(657,520)" d="m0 0h9l10 3 8 7 2 7-3-2v-2l-4-2-5-4-7-3h-18v-2z" fill="#54BBF3"/>
<path transform="translate(780,472)" d="m0 0 2 1-18 13-8 6-17 9-3-1 9-5 2-4 8-3 17-11z" fill="#125AC8"/>
<path transform="translate(690,752)" d="m0 0 2 2-6 4-7 2h-7l-6-2v-2l19-2z" fill="#0B45BE"/>
<path transform="translate(686,673)" d="m0 0h18l9 2-2 2h-26l-8-1v-1z" fill="#219FF4"/>
<path transform="translate(1091,605)" d="m0 0 3 3 8 13 3 1v18l-1 6h-1l-2-22-10-17z" fill="#1462CC"/>
<path transform="translate(1097,869)" d="m0 0 3 3 1 3v8l-4 2-4-2 1-6z" fill="#0B46BE"/>
<path transform="translate(679,541)" d="m0 0 4 2 2 3v14l-4 5-1-4 1-12z" fill="#1462CC"/>
<path transform="translate(845,915)" d="m0 0 3 1 5 13 7 14-1 2-4-4-4-8-5-13z" fill="#1150C6"/>
<path transform="translate(500,570)" d="m0 0h2v4l3 1-3 6-6-1-3-4 2-4 3-1 1 1z" fill="#0C40B9"/>
<path transform="translate(751,618)" d="m0 0v3l-6 12-10 13-2-2 9-12 7-13z" fill="#1C87E0"/>
<path transform="translate(573,1075)" d="m0 0 21 1 6 1v1h-37l3-2z" fill="#0822A6"/>
<path transform="translate(638,697)" d="m0 0 1 2-2 3-2 7-1-3v-3l-6 11-3 4-1-3 7-13 6-4z" fill="#2592E5"/>
<path transform="translate(798,422)" d="m0 0 4 1 1 2-9 3h-9l2-1 1-3z" fill="#61BFF4"/>
<path transform="translate(1043,506)" d="m0 0 3 1 5 5 4 3-1 4-11-4-2-2 5 1h2l-5-6z" fill="#22A5F9"/>
<path transform="translate(1013,470)" d="m0 0 4 2 11 9 10 10-1 2-5-4-5-6-10-8z" fill="#47AFEF"/>
<path transform="translate(937,859)" d="m0 0 7 1 3 1v3l-6 2-5-2z" fill="#0B45BE"/>
<path transform="translate(1023,1024)" d="m0 0 9 2 7 2 3 3-5 2v-2h-8l3-2-9-4z" fill="#0D36BF"/>
<path transform="translate(878,971)" d="m0 0 8 6 11 9 1 3-4-2-11-9-5-5z" fill="#0F4BC4"/>
<path transform="translate(701,741)" d="m0 0 1 3-1 7 2 2-10 3 2-5z" fill="#1E8EE4"/>
<path transform="translate(667,678)" d="m0 0 4 2-5 2-5 1-15 8h-2v-2z" fill="#5DBEF4"/>
<path transform="translate(460,640)" d="m0 0 6 1 2 4-4-1-9 3-1-2 4-4z" fill="#0D3FBC"/>
<path transform="translate(876,858)" d="m0 0 5 1 1 6h-3v2l-3-1-1-7z" fill="#0B45BE"/>
<path transform="translate(1074,829)" d="m0 0h20l4 2-14 1-10-1z" fill="#1E8EE4"/>
<path transform="translate(780,472)" d="m0 0 2 1-18 13-2-1 5-5z" fill="#0F53C5"/>
<path transform="translate(760,869)" d="m0 0h2l-2 5-9 12-2-2 8-10z" fill="#1B81DD"/>
<path transform="translate(467,650)" d="m0 0h2l-2 4-3 2-6-1-1-4 6 1z" fill="#0D46BD"/>
<path transform="translate(921,1021)" d="m0 0 18 6-4 1-18-5z" fill="#0D44C0"/>
<path transform="translate(1131,753)" d="m0 0 4 2 12 13-1 2-11-11z" fill="#1C84DF"/>
<path transform="translate(644,530)" d="m0 0 4 1-3 6-4 1-3-3z" fill="#0E37C1"/>
<path transform="translate(1043,497)" d="m0 0 5 5 9 10-1 2-6-6v-2h-2l-5-6z" fill="#3BADF3"/>
<path transform="translate(964,617)" d="m0 0 4 2 5 6-1 2h-3l-4-6z" fill="#21A3F7"/>
<path transform="translate(935,496)" d="m0 0 1 2 7 1 1 5-10-4-1-3z" fill="#135ECA"/>
<path transform="translate(1e3 466)" d="m0 0 9 3 2 5h-4l-5-4z" fill="#21A2F6"/>
<path transform="translate(569,667)" d="m0 0 2 1-1 4h-2v4l-6 1 2-5z" fill="#0D4DC2"/>
<path transform="translate(1091,605)" d="m0 0 3 3 8 13 1 3-3-1-9-16z" fill="#1159C8"/>
<path transform="translate(564,692)" d="m0 0 3 1 3 4v2h3v2l-5-1-5-5z" fill="#0B46BE"/>
<path transform="translate(1084,905)" d="m0 0h2l1 7-5 1-1-5h3z" fill="#0825A8"/>
<path transform="translate(741,633)" d="m0 0h2l-1 4-7 9-2-2z" fill="#1B80DC"/>
<path transform="translate(640,556)" d="m0 0h2l5 8 2 3-4-1-5-6z" fill="#135DC9"/>
<path transform="translate(872,849)" d="m0 0 5 1v7h-2v-2l-3-1-1-4z" fill="#0C48BF"/>
<path transform="translate(548,638)" d="m0 0 3 1v3l-4 4-2-4z" fill="#1461CC"/>
<path transform="translate(658,741)" d="m0 0 4 2 5 4 3 2-2 1-6-3-4-4z" fill="#1C84DF"/>
<path transform="translate(971,626)" d="m0 0 5 5 4 6-1 3-1-3h-2l-1-5-3-1z" fill="#4AB5F2"/>
<path transform="translate(1048,823)" d="m0 0h5l-1 5h-5l-1-2z" fill="#0B45BE"/>
<path transform="translate(758,600)" d="m0 0 2 1-4 4-3 9-1-4 2-8z" fill="#1569D0"/>
</svg>
