<?xml version="1.0" encoding="UTF-8"?>
<svg version="1.1" viewBox="0 0 1056 1008" width="264" height="252" xmlns="http://www.w3.org/2000/svg">
<path transform="translate(487,48)" d="m0 0h44l26 2 35 5 28 6 28 8 28 10 23 10 17 8 23 13 21 13 18 13 14 11 11 9 11 10 2 1v2l4 2 20 20 7 8 12 14 13 17 12 17 12 19 12 21 12 24 11 27 12 36 8 32 5 30 3 26 1 20v32l-2 31-5 33-6 29-9 31-9 25-11 26-12 24-13 22-12 18-10 14-10 13-12 14-9 10-7 8h-2l-2 4h-2l-2 4-8 7-8 8-11 9-16 13-20 14-17 11-21 12-21 11-28 12-20 7-15 5-26 7-36 7-34 4-17 1h-34l-30-2-34-5-36-8-29-9-27-10-28-13-23-12-24-15-17-12-12-9-16-13-13-12-12-11-9-9-7-8-11-12-13-17-12-16-13-20-9-15-15-29-9-20-11-29-9-30-6-26-5-32-3-31v-52l3-30 6-36 9-36 11-32 11-26 12-25 16-27 10-15 10-14 10-13 14-17 12-13 24-24 11-9 13-11 18-13 21-14 20-12 29-15 26-11 25-9 29-8 28-6 26-4 18-2zm-4 40-36 4-31 6-29 8-26 9-25 11-16 8-17 9-19 12-17 12-13 10-13 11-8 7-15 14-3 3v2h-2l-7 8-9 10-11 14-10 13-12 18-9 15-10 18-11 23-11 28-8 25-7 28-5 28-3 30v52l4 36 6 31 7 26 11 32 11 25 10 20 13 22 8 12 10 14 10 13 12 14 7 8 26 26 11 9 13 11 18 13 22 14 22 12 16 8 23 10 25 9 29 8 30 6 34 4 16 1h34l34-3 30-5 29-7 36-12 26-11 24-12 17-10 24-16 16-12 13-11 11-9 26-26 9-11 11-13 14-19 12-19 8-13 15-30 10-24 12-36 8-34 4-26 3-34v-36l-3-32-4-26-7-31-8-26-8-21-8-18-8-17-13-23-9-14-12-17-10-13-12-14-9-10-7-8-8-7-10-10-11-9-12-10-18-13-17-11-21-12-21-11-21-9-28-10-24-7-28-6-26-4-24-2z" fill="#157EFE"/>
<path transform="translate(492,248)" d="m0 0h28l19 2 19 4 15 5 19 9 13 9 10 9 5 5 8 9 8 13 7 16 4 15 2 17v17l-3 22-5 16-9 17-10 13-11 12-18 14-17 11-14 10-10 9-8 9-7 14-4 17-2 26-1 1h-72v-23l2-23 4-19 7-17 7-12 9-11 11-9 15-11 16-11 10-8 16-16 8-14 4-19-1-16-4-14-7-11-8-8-14-8-12-4-8-1h-14l-15 3-16 8-10 9-7 10-5 13-3 15-1 2-3 1h-74l-1-1 1-17 5-23 6-15 6-11 8-11 9-10 8-8 18-12 19-9 21-6 17-3z" fill="#157EFE"/>
<path transform="translate(488,617)" d="m0 0h13l14 3 12 7 8 8 6 10 3 10v20l-4 12-7 10-7 7-12 6-15 3-17-1-11-4-9-6-8-8-7-14-2-7v-15l4-14 6-9 5-5 7-6 11-5z" fill="#157EFE"/>
</svg>
