<?xml version="1.0" encoding="UTF-8"?>
<svg version="1.1" viewBox="0 0 1883 2048" width="160" height="174" xmlns="http://www.w3.org/2000/svg">
<path transform="translate(943,74)" d="m0 0h38l42 4 44 5 27 5 44 11 38 13 26 11 25 12 19 10 25 14 21 13 20 14 19 14 22 18 10 9 8 7 13 12 20 20 7 8 12 14 10 13 14 18 12 17 11 17 10 17 15 28 12 24 12 27 10 27 9 30 7 30 5 26 5 41 5 52 3 48 3 75 3 35 8 50 6 28 9 36 12 39 12 33 14 34 12 26 14 29 13 25 12 21 14 23 18 27 12 17 10 14 14 19 12 16 14 22 8 15 10 22 8 21 7 22 3 16 2 30-1 28-3 24-6 23-8 22-11 23-11 18-12 16-10 11-7 8-10 9-17 13-16 10-10 6-22 10-27 9-17 4-19 2-24 1h-1265l-22-1-19-3-28-8-20-8-19-10-18-12-14-11-10-9-7-6v-2h-2l-7-8-9-10-13-18-12-21-10-24-6-21-5-24-3-21v-22l5-30 8-32 7-19 8-17 11-18 10-14 12-16 12-17 8-11 11-15 14-19 21-28 12-17 15-24 12-19 9-16 12-22 13-27 16-38 12-31 10-28 8-26 10-40 8-43 5-35 2-22 4-70 6-81 3-41 4-27 7-33 7-27 12-36 10-27 11-26 10-20 14-23 14-22 8-11 11-16 12-15 9-11 12-14 9-10 7-8 22-22 8-7 10-9 28-22 13-10 29-19 15-9 21-12 21-11 28-13 26-10 30-10 29-8 27-6 27-4 64-7z" fill="#ACCEFD"/>
<path transform="translate(947,437)" d="m0 0h9l14 3 17 7 12 8 13 12 11 15 8 17 4 16 2 26 1 223v76l-2 23-5 19-10 17-15 16-11 9-14 8-12 5-9 2h-14l-15-5-19-10-13-9-10-9-9-13-4-9-4-19-1-8-2-57-1-72v-90l1-80 2-42 2-15 5-13 9-14 14-15 12-9 14-8 13-4z" fill="#1783FE"/>
<path transform="translate(842,1728)" d="m0 0h103l184 1 24 1 7 2-1 10-9 27-12 23-11 16-11 14-12 13-7 7-14 11-14 10-24 13-19 8-19 6-24 4-24 2h-22l-31-3-16-4-15-5-20-9-14-8-12-8-13-10-10-9-8-7-14-15-14-19-10-17-10-21-7-19-1-10 1-1 42-2z" fill="#1783FD"/>
<path transform="translate(909,451)" d="m0 0 2 1-14 12-10 11-8 13-5 13-2 15-2 43-1 96v80l1 67 2 55 3 19 4 13 6 10 7 9 8 7 14 9-3 1-10-6-9-6v-2l-4-2-2-4h-2l-4-5-5-5-4-7-5-15-3-19-2-28-3-85v-62l1-96 1-38 1-6v-8l3-19 4-19 2-9 5-10 7-10h2l1-3 11-5 8-2z" fill="#99BDFC"/>
<path transform="translate(290,1632)" d="m0 0h107l428 1h238l56-1 479 1v1l-16 1h-1265l-22-1-5-1z" fill="#99BDFC"/>
<path transform="translate(1025,486)" d="m0 0 3 3 4 7 4 16 3 33 2 39 2 21 2 31 1 14 1 29v16l-1 45-1 64-1 35-5 28-5 15-7 10-5 7v-3l8-14 5-19 2-23v-104l-1-195-2-26-4-16-5-11z" fill="#99BDFC"/>
<path transform="translate(290,1632)" d="m0 0h107l256 1v2h-336l-22-1-5-1z" fill="#9FC2FC"/>
</svg>
