<?xml version="1.0" encoding="UTF-8"?>
<svg version="1.1" viewBox="0 0 1965 2048" width="190" height="198" xmlns="http://www.w3.org/2000/svg">
<path transform="translate(722,154)" d="m0 0h218l48 1 20 1 12 2 2 3 1 6 1 23 1 65v370l2 34 5 33 6 27 8 26 13 33 13 27 13 23 12 20 10 14 18 22 12 14 14 15 16 15 11 9 10 9 13 10 19 13 16 10 23 13 28 14 27 11 24 8 26 6 22 3 25 2 25 1 55 1 257 1 83 1 20 1 9 2 2 3 1 7 1 52v302l-1 47-3 42-3 24-6 29-6 23-11 32-12 28-16 33-12 21-13 21-13 18-14 19-13 15-24 26-5 5h-2v2l-8 7-14 13-11 9-16 13-33 22-15 9-26 14-29 13-24 9-32 10-38 9-47 8-27 3-41 2-103 1h-172l-470-1-34-1-30-2-29-4-37-7-28-7-33-11-23-10-16-8-23-12-22-13-21-14-12-9-10-8-17-14-11-10-8-7-35-35-7-8-12-14-12-16-12-17-12-19-15-26-15-31-15-37-10-32-6-27-5-30-3-32-2-37-2-69-1-76v-495l4-150 2-44 3-27 5-28 8-31 9-25 12-28 9-20 10-19 13-23 11-17 10-15 12-16 8-10 12-14 15-16 13-13 8-7 28-24 17-13 18-13 22-14 21-12 23-12 19-9 31-12 30-9 25-6 35-6 33-4 42-2z" fill="#454856"/>
<path transform="translate(1150,157)" d="m0 0 5 2 11 9 16 15 31 31 7 8 14 14 7 8 16 17 10 10 7 8 7 7 7 8 8 8 7 8 17 17 7 8 7 7 7 8 14 14 7 8 10 10 7 8 12 12 7 8 14 14 7 8 11 11 7 8 11 11 7 8 14 14 7 8 10 10 7 8 19 19 7 8 10 10 7 8 8 8 7 8 13 13 7 8 16 17 11 11 7 8 11 11 7 8 17 17 7 8 28 28 7 8 13 13 7 8 17 17 7 8 11 11 7 8 8 8 7 8 12 12 7 8 12 12 7 8 14 14 7 8 22 22 7 8 11 13 5 10v2l-2 1h-132l-241-1-56-1-30-2-23-4-24-7-26-10-24-12-17-10-19-14-13-11-15-14-15-15-9-11-10-12-9-13-9-15-10-19-11-27-10-31-4-18-2-18-1-20-1-37-1-77-1-211v-130l1-9z" fill="#9AA2B5"/>
<path transform="translate(650,1425)" d="m0 0h614l19 2 13 5 11 8 8 9 8 13 6 15 2 7v14l-3 12-7 17-7 10-8 8-16 8-16 4-43 2h-602l-15-1-15-4-10-4-12-9-10-11-8-16-4-16v-14l4-15 7-13 10-13 12-9 12-6 13-2z" fill="#9AA2B5"/>
<path transform="translate(636,1056)" d="m0 0h273l16 2 12 4 11 6 10 8 8 8 8 13 5 13 2 9v17l-4 17-5 11-7 11-5 5-9 8-10 6-10 3-8 1-27 1h-274l-18-3-12-6-11-9-7-8-8-13-5-15-1-5v-23l4-14 6-12 8-10 9-8 11-7 15-6 13-3z" fill="#9AA2B5"/>
</svg>
