<?xml version="1.0" encoding="UTF-8"?>
<svg version="1.1" viewBox="0 0 1984 1920" width="124" height="120" xmlns="http://www.w3.org/2000/svg">
<path transform="translate(1361,156)" d="m0 0h55l27 2 17 2 23 4 23 6 18 6 20 8 25 12 19 10 19 12 16 11 21 16 14 12 13 12 10 9 8 8 7 8 12 14 12 16 12 18 10 17 14 27 12 28 8 24 8 30 4 19 3 24 2 28v32l-3 41-4 26-8 30-9 27-14 34-16 30-11 17-8 12-12 17-11 13-9 11-12 13-7 8-12 13-15 16-10 10-7 8-23 23-7 8-4 4h-2l-2 4-16 16h-2l-2 4h-2l-1 3-8 7-26 26-8 7-43 43h-2v2h-2v2h-2l-2 4-16 15-40 40h-2v2l-8 7-10 9-8 7-14 12-13 11-10 8-18 12-15 9-24 13-17 7-13 7-8 10-15 30-10 18-13 22-8 12-10 14-13 16-8 10-12 14-11 12-7 8-16 17-10 10-7 8h-2v2l-78 78-5 4-1 2h-2l-2 4-15 14-69 69-8 7-22 22-8 7-12 12-8 7-15 14-8 7-16 13-9 8-11 8-18 12-15 9-18 10-16 8-17 8-25 9-27 8-24 5-42 6-21 2h-34l-57-6-27-6-38-12-22-9-29-14-24-14-18-12-13-10-11-9-15-13-10-9-16-16-7-8-14-17-10-13-14-21-14-24-12-23-9-21-12-35-7-26-6-32-4-31-1-18v-19l2-21 6-38 10-40 9-26 10-23 8-16 12-23 14-22 16-21 11-14 10-12 9-11 9-10 7-8 12-13 35-35 6-7 6-5 7-8 183-183 6-5 14-14 8-7 13-11 12-10 9-7 18-13 14-10 22-13 23-12 17-8 5-3h2l2-4 7-11 7-16 16-28 11-17 8-11 6-8 10-14 9-11 7-9 11-13 12-13 8-8 7-8 58-58 1-2h2l2-4 7-6 1-2h2l2-4 8-8 6-5 7-8h2v-2l8-7 4-5 8-7 89-89 8-7 14-14h2v-2l8-7 17-16 14-12 14-11 10-8 24-18 14-10 17-10 18-10 25-12 26-10 27-8 29-5 27-3zm7 239-20 3-13 4-16 8-21 14-12 9-11 9-12 11-10 10-8 7-8 9-8 7-7 8-130 130-8 7-49 49-11 9-4 4 1 3 17 10 29 16 21 13 16 11 21 16 10 8 11 9 13 12 9 9 7 8 10 12 8 10 14 19 15 23 10 17 11 17 6 10 6 7 7-5 7-8 20-20 7-8 8-8 7-8 13-13v-2h2l38-38 8-7 38-38 3-2v-2l4-2 7-8 8-7 7-8 56-56 9-11 12-15 10-13 10-15 11-24 4-17 1-11v-38l-2-17-5-15-10-21-14-22-11-14-10-11h-2v-2l-14-11-10-7-17-10-15-7-14-4-19-3zm-642 601-12 9-10 9-8 7-12 11-6 7-8 7-8 9-8 7-3 3v2l-4 2-167 167-9 11-8 9-11 15-12 20-7 15-4 15-4 25v26l3 24 5 20 5 12 9 17 12 16 8 10 12 12 16 12 14 8 16 8 13 5 15 3 18 2h26l26-3 17-5 21-9 16-10 18-14 13-11 8-7 100-100v-2l4-2 14-15 12-12 6-7 4-3v-2h2l7-8 29-29v-2l4-2v-2l4-2 14-15 33-33-1-4-12-9-17-10-22-12-15-10-13-9-16-12-14-12-10-9-13-12-12-12-7-8-9-10-13-17-18-27-16-28-6-12-7-16z" fill="#9BA1B4"/>
<path transform="translate(1361,156)" d="m0 0h55l27 2 17 2 23 4 23 6 18 6 20 8 25 12 19 10 19 12 16 11 21 16 14 12 13 12 10 9 8 8 7 8 12 14 12 16 12 18 10 17 14 27 12 28 8 24 8 30 4 19 3 24 2 28v32l-3 41-4 26-8 30-9 27-14 34-16 30-11 17-8 12-12 17-11 13-9 11-12 13-7 8-12 13-15 16-10 10-7 8-23 23-7 8-4 4h-2l-2 4-16 16h-2l-2 4h-2l-1 3-8 7-26 26-8 7-43 43h-2v2h-2v2h-2l-2 4-16 15-40 40h-2v2l-8 7-10 9-8 7-14 12-13 11-10 8-18 12-15 9-24 13-17 7-4 1v-35l3-27 2-29 1-16v-38l-2-20-5-33-7-32-6-29-4-16v-6l8-4 2-4 24-24 7-8 8-8 7-8 13-13 1-2h2l1-3 8-7 29-29 8-7 26-26h2l2-4 8-8 6-5 7-8 7-7h2l2-4 44-44h2l2-4 12-12 9-11 12-15 10-13 10-15 11-24 4-17 1-11v-38l-2-17-5-15-10-21-14-22-11-14-9-10-2-1v-2l-4-2-11-9-17-11-19-10-15-5-23-4h-41l-20 3-13 4-16 8-21 14-12 9-11 9-12 11-10 10-8 7-8 9-7 6-7 8-131 131-8 7-49 49-11 9-3 3v2l12 7v1l-16 2-3 1-5 5-11 12-9 11-13 18-10 15-9 17-6 16-3 12-2 16v31l4 23 6 19 8 16 9 15 8 11 7 11 10 15 9 15 8 14 6 13 4 11 7 26 3 15 1 18-4 20-6 21-7 17-3 7-10 18-8 10-12 16-4 6-6 5-7 8-11 11h-2v2l-5 2v2h-2l-1-3-12-9-17-10-22-12-15-10-13-9-16-12-14-12-10-9-13-12-13-13-7-8-9-10-13-17-18-27-16-28-6-12-7-16-4 1-8-32-4-14-5-22-4-28-2-16-2-18v-40l2-25 6-41 8-40 2-9v-13l6-2 2-4 7-11 7-16 16-28 11-17 8-11 6-8 10-14 9-11 7-9 11-13 12-13 8-8 7-8 58-58 1-2h2l2-4 7-6 1-2h2l2-4 8-8 6-5 7-8h2v-2l8-7 4-5 8-7 89-89 8-7 14-14h2v-2l8-7 17-16 14-12 14-11 10-8 24-18 14-10 17-10 18-10 25-12 26-10 27-8 29-5 27-3z" fill="#D1DAE9"/>
<path transform="translate(1022,698)" d="m0 0 5 1 6 3v1l-16 2-3 1-5 5-11 12-9 11-13 18-10 15-9 17-6 16-3 12-2 16v31l4 23 6 19 8 16 9 15 8 11 7 11 10 15 9 15 8 14 6 13 4 11 7 26 3 15 1 18-4 20-6 21-7 17-3 7-10 18-8 10-12 16-4 6-6 5-7 8-11 11h-2v2l-5 2v2h-2l1-8 5-2 1-3h2v-3h2l1-4 4-5 7-6 8-11 5-6h2l2-5 5-7h2l2-5h2l1-4h2l1-4 2-3h2l8-16 2-6 5-21 3-16 1-12-1-21-3-21-4-10-1-5-3-11-7-14v-2h-2l-5-9v-3l-3-1-7-12-2-1-3-6-9-13-1-5-3-1-3-6-2-5-3-1-3-6-2-5-3-3-3-7-1-1v-5h-2l-6-22-4-25v-21l3-22 3-13 3-12 4-10h2l1-6 7-13 8-13h2l2-7 7-9 1-2h2l1-4 5-7 4-4h2l1-4 7-6 12-6z" fill="#C1CAD9"/>
<path transform="translate(1254,922)" d="m0 0 2 3 4 13 7 28 4 14 4 10 2 10 3 13 4 33 1 19v12l1 25v24l1 13 2 3 1 11 3 4v2h10l3-2 1 3h7l2-3h2l2 2 4-2 2 2 2 1-3 1-1 9-2 3-1 5-9 3h-9l-6 3-5 5-4 8-12 5-4 1v-35l3-27 2-29 1-16v-38l-2-20-5-33-7-32-6-29-4-16z" fill="#C1CAD9"/>
<path transform="translate(718,699)" d="m0 0h3l-1 13-5 24-6 32-4 31-3 40v15l3 31 4 30 5 24 4 14 9 30 2 10v4l-6 1-8-32-4-14-5-22-4-28-2-16-2-18v-40l2-25 6-41 8-40 2-9v-13z" fill="#C1CAD9"/>
<path transform="translate(1162,539)" d="m0 0 4 1 1 4-1 2h2l-1 4-6 5-2-3-1-8z" fill="#C1CAD9"/>
<path transform="translate(1056,652)" d="m0 0 3 2-1 4-6 6-3-1v-8z" fill="#C2CBDA"/>
<path transform="translate(1068,636)" d="m0 0 9 1-2 4-2 2h-8l1-4z" fill="#BCC4D4"/>
<path transform="translate(1457,160)" d="m0 0 22 3v2l-8 1-3-2-12-2z" fill="#C1CAD9"/>
<path transform="translate(1382,390)" d="m0 0 5 1 4 3h-20l4-2z" fill="#C1CAD9"/>
</svg>
