<?xml version="1.0" encoding="UTF-8"?>
<svg version="1.1" viewBox="0 0 2048 2048" width="182" height="182" xmlns="http://www.w3.org/2000/svg">
<path transform="translate(1596,90)" d="m0 0h75l56 2 22 2 16 3 20 2 48 3 18 3 31 8 10 6 8 9 5 12 4 21 4 37 5 44 4 30 1 14v17l-3 31-3 21v19l4 34 4 39v13l-4 32-5 21-7 20-11 21-7 9-8 8-15 7-16 4-36 4-45 4-17 1h-41l-104-5-91-2-12-2-23-10-12-7-12-11-9-12-8-16-5-16-5-24-2-16-1-15-1-30v-229l1-19 3-10 8-16 4-6 9-10 12-9 11-8 14-7 22-9 19-2 16-1 13-3 9-3 14-2z" fill="#41434D"/>
<path transform="translate(1612,1438)" d="m0 0h144l46 1 36 2 14 3 24 8 13 7 12 11 9 12 6 13 3 11v37l-1 18v65l2 44v47l-3 42-4 49-2 27-3 14-7 20-6 11-8 10-10 8-23 11-27 9-17 4-35 5-12 1h-47l-65-3-143-3-12-2-25-11-12-8-10-10-6-10-12-36-1-4v-36l4-76 4-131 2-73 2-9 8-15 4-9 10-14 17-17 10-6 14-4 20-4 14-5 20-2z" fill="#41434D"/>
<path transform="translate(304,96)" d="m0 0h14l32 1 37 4h15l15 1 4 2h10l6-2 35-1 11 2 8 5 6 2 20 2 10 3 18 8 11 7 10 8 9 9 8 13 5 14 2 10v10l-1 2 3 10 3 23 1 14v81l-2 47-1 46-2 40-3 29-5 19-6 16-8 14-9 11-11 11-14 9-21 9-16 4-11 1-23 1-63 1h-200l-23-2-14-3-10-6-13-11-9-10-8-13-5-12-7-23-5-21-2-19-3-63-3-100-2-38v-24l2-18 4-23 5-17 6-13 6-9 12-12 7-8 12-9 19-10 19-7 12-4 8-3 40-6 13-1z" fill="#9AA0B2"/>
<path transform="translate(204,768)" d="m0 0h30l18 1 17 4 10 1 56 1 140 1 17 1 16 3 29 10 15 8 10 8 9 8 10 13 11 21 3 9 1 7v107l-1 26-3 34-1 32 2 44v46l-3 17-6 18-9 15-11 13-10 8-15 8-18 6-24 6-25 3-22 1-143 1-45 1-13 1-11 2h-18l-14 1-1-1h-10l-6-3-17-1-11-2-19-13-12-12-7-11-8-17-4-15-4-24-2-30-2-93-2-53v-69l2-26 3-19 8-29 5-12 8-12 12-14 8-8 12-9 8-4 12-3 10-2 9-3z" fill="#41434D"/>
<path transform="translate(217,1437)" d="m0 0h78l39 1 62 1 38 1 34 2 19 3 36 8 14 5 13 7 11 8 9 9 9 14 4 8 4 17v31l-4 47v50l1 25 1 124-1 52-2 9-7 15-4 10-8 10-8 7-16 9-20 8-11 3-26 2h-292l-10-2-26-12-12-8-10-9-7-11-10-25-3-14-1-50-3-69-3-76-2-37v-54l3-27 6-24 5-13 6-10 8-10 12-12 13-9 19-9 18-3z" fill="#41434D"/>
<path transform="translate(1610,772)" d="m0 0h44l121 1 47 3 20 3 24 8 16 8 8 6 8 9 8 17 4 14 2 15 2 30 1 70 3 29 3 28 1 15v52l-2 32-4 34-5 35-4 16-11 23-6 8-6 5-21 9-15 4-37 5-20 2-17 1h-143l-28-1-60-6-32-6-23-5-14-7-12-11-7-7-6-10-7-15-2-10-1-39-2-35-7-89-2-46v-49l2-33 4-17 4-13 3-17 4-9 6-11 9-11 9-9 14-9 23-11 13-2 56-3z" fill="#41434D"/>
<path transform="translate(939,100)" d="m0 0h43l79 1 26 1 22 2 48 2 25 2 26 4 13 4 10 6 9 9 8 13 8 19 3 14 1 12v98l-1 25-4 33-2 16v22l2 35v23l-1 16-4 26-3 23-4 11-8 16-9 13-10 10-11 7-18 7-39 9-24 3-31 2h-213l-13-2-10-5-19-5-14-8-13-10-7-7-7-11-7-15-4-13-6-30-2-19-1-28-1-67-2-71-3-26v-49l2-14 1-4 2-22 2-9 8-14 12-13 4-5 13-10 19-11 17-6 20-6 9-2 11-1z" fill="#41434D"/>
<path transform="translate(896,1439)" d="m0 0h169l50 1 31 2 18 3 30 8 19 8 15 10 10 10 7 10 5 12 4 16v22l-2 20-2 49-1 80v56l1 44v56l-2 18-5 12-8 11-10 10-10 7-12 5-27 6-17 3-22 1-84 1-89 3-48 1h-20l-28-1-20-3-23-7-14-7-11-9-9-10-7-14-6-17-2-14-1-35v-239l1-38 2-16 6-16 8-15 9-11 9-8 15-10 23-10 7-3 8-1z" fill="#41434D"/>
<path transform="translate(863,776)" d="m0 0h305l11 1 12 5 18 8 10 6 10 8 9 10 8 14 6 18 4 18 2 20 1 17v42l-3 48-4 53-2 35-2 96-3 12-11 21-9 11-8 6-16 8-24 7-21 4-33 3-23 1-125 1-43 1h-25l-49-2-11-2-30-12-12-8-10-10-7-11-9-25-2-9-1-10-1-42v-253l1-23 3-11 10-16 9-10 8-8 13-8 23-11 9-2z" fill="#41434D"/>
<path transform="translate(562,136)" d="m0 0 4 2 9 9 8 13 5 14 2 10v10l-1 2 3 10 3 23 1 14v81l-2 47-1 46-2 40-3 29-5 19-6 16-8 14-7 6-2-1 7-15v-7l3-12 4-34 4-40 1-6 1-47v-52l1-19-2-64-2-21-1-20-3-19-5-26-1-11-5-8z" fill="#878B9A"/>
<path transform="translate(499,568)" d="m0 0h11l9 2-2 4-13 4-17 2-23 1-63 1h-200l-15-1-4-2 4-2 21-3 18-1 41-1h28l28-1h109l32-1z" fill="#878B9A"/>
<path transform="translate(576,151)" d="m0 0 5 5 5 11 4 17v10l-1 2 3 10 3 23 1 14v81l-2 47-1 46-2 40-3 29-5 19-2 1 1-13 2-18 1-18 1-34 1-35v-64l-1-22-1-82-2-26-3-19-4-17z" fill="#42444E"/>
<path transform="translate(1436,162)" d="m0 0 1 3-1 15-1 59v182l1 47 1 32-3-3-3-17-2-25-1-30v-229l1-19 3-10 2-4z" fill="#252429"/>
<path transform="translate(592,855)" d="m0 0h2l2 9v107l-1 26-3 34-2 2v-90z" fill="#26252B"/>
<path transform="translate(1434,870)" d="m0 0h1l-1 172-2-3-3-43-1-29v-49l2-33 3-14z" fill="#27262C"/>
<path transform="translate(591,218)" d="m0 0h2l2 11 1 14v81l-2 47-1 46-1 13h-1z" fill="#28282D"/>
<path transform="translate(1102,580)" d="m0 0h14v2l-3 1-20 1h-213l-6-1v-2z" fill="#242429"/>
<path transform="translate(1254,165)" d="m0 0 3 1 2 11 1 12v98l-1 25-2 14h-1z" fill="#29282E"/>
<path transform="translate(776,1541)" d="m0 0h1l1 217v90h-1l-1-6-1-35v-239z" fill="#29282E"/>
<path transform="translate(1720,585)" d="m0 0h54l16 1-2 2-4 1-30 2h-41l-44-2-14-2v-1z" fill="#2A292F"/>
<path transform="translate(1433,1779)" d="m0 0h1l1 11 2 68-2-1-5-16v-36l2-25z" fill="#26252A"/>
<path transform="translate(1203,112)" d="m0 0 10 1 12 5 9 7 9 10 6 11-1 3-9-10-11-10-13-9-12-7z" fill="#25252A"/>
<path transform="translate(1596,90)" d="m0 0h75l33 1 9 1v1h-45l-79-1v-1z" fill="#25252A"/>
<path transform="translate(100,317)" d="m0 0h2l1 11 1 36v47h-1l-1-12-2-70z" fill="#898E9D"/>
<path transform="translate(591,1100)" d="m0 0h1l1 7v46l-2 13-2 1 1-61z" fill="#2A292F"/>
<path transform="translate(304,96)" d="m0 0h14l32 1 2 1-1 2h-22l-21-1h-30v-2z" fill="#898D9C"/>
<path transform="translate(1444,1881)" d="m0 0h2l7 9 10 10 11 7 11 6-3 1-16-8-9-7-8-8z" fill="#28282E"/>
<path transform="translate(1657,90)" d="m0 0h14l33 1 9 1v1h-45v-2h-11z" fill="#2E2E34"/>
<path transform="translate(1440,1150)" d="m0 0h1l2 17 2 23-2-1-3-13z" fill="#26252A"/>
<path transform="translate(777,174)" d="m0 0h1l1 5-1 14-2 7h-1v-13z" fill="#28282E"/>
<path transform="translate(1879,113)" d="m0 0 5 1 9 6 7 8-1 2-11-10-9-6z" fill="#29282F"/>
<path transform="translate(583,1839)" d="m0 0h1v11l-2 9-3 5-1-2z" fill="#2E2D34"/>
<path transform="translate(1103,580)" d="m0 0h13v2l-3 1h-11z" fill="#313138"/>
<path transform="translate(572,1876)" d="m0 0 1 3-4 8-5 6h-2l2-4 7-11z" fill="#2A2A30"/>
<path transform="translate(196,109)" d="m0 0 3 1-5 2-3 5-2-1v-3l-5 1 2-2z" fill="#7B7E8D"/>
</svg>
