<?xml version="1.0" encoding="UTF-8"?>
<svg version="1.1" viewBox="0 0 816 856" width="204" height="214" xmlns="http://www.w3.org/2000/svg">
<path transform="translate(334,173)" d="m0 0 13 1 9 4 8 7 6 10 1 4v15l-10 35-3 15-2 19v18l2 19 5 24 6 18 9 21 12 20 12 16 11 12 12 11 20 15 22 12 24 9 19 5 17 3 14 1h43l9 3 8 6 6 8 4 13-1 10-4 9-7 10-12 13-9 10-14 12-14 11-17 11-16 9-19 8-24 8-22 5-19 2h-45l-18-2-25-6-21-7-15-6-19-10-16-11-13-10-10-9-22-22-10-13-11-16-13-23-11-27-5-18-4-20-3-32v-14l2-21 4-22 6-22 9-24 13-25 13-19 11-14 9-10 9-9 16-12 18-14 21-12 20-9z" fill="#9BA1B5"/>
<path transform="translate(375,378)" d="m0 0 2 3 13 22 12 16 11 12 12 11 20 15 22 12 24 9 19 5 17 3 14 1h43l9 3 8 6 6 8 4 13-1 10-4 9-7 10-12 13-9 10-14 12-14 11-17 11-16 9-19 8-24 8-22 5-19 2h-45l-18-2-25-6-21-7-11-4 2-1-2-23-3-33v-25l3-29 5-23 9-27 9-20 9-17 7-11 13-18 9-9z" fill="#E4E5EA"/>
<path transform="translate(401,419)" d="m0 0 17 17 11 9 16 12 22 12 24 9 19 5-1 2h-9l-6-1v-3h-9l-3-1v-2l-9-3-10-2-14-7-10-6-11-8-5-4-6-7-6-5-4-4-1-3-4-4-2-4z" fill="#FEFEFE"/>
<path transform="translate(471,472)" d="m0 0 6 1 24 8 9 2-1 2h-9l-6-1v-3h-9l-3-1v-2l-9-3-2-1z" fill="#FCFCFC"/>
<path transform="translate(600,496)" d="m0 0 5 5 4 8 2 8-1 10-2-3-2-17h-2v-2l-3-1-2-3z" fill="#FEFEFE"/>
<path transform="translate(515,485)" d="m0 0 12 1 4 2-9 1-8-1z" fill="#FEFEFE"/>
</svg>
