<?xml version="1.0" encoding="UTF-8"?>
<svg version="1.1" viewBox="0 0 2048 1847" width="204" height="184" xmlns="http://www.w3.org/2000/svg">
<path transform="translate(1240,546)" d="m0 0 6 1 10 6 19 14 13 11 15 14 14 14 9 11 13 16 13 18 14 23 12 23 8 17 8 21 8 25 6 26 5 31 2 21 1 31-2 34-3 24-6 29-5 19-10 30-11 24-11 22-14 23-11 16-10 13-11 14-10 11-5 6-8 7-13 13-14 11-30 22-5 4-7-2-12-6-21-8-17-8-28-17-17-13-13-11-12-11-20-20-7-8-11-13-14-20-14-23-9-17-14-34-7-22-7-33-2-15-1-15v-50l3-31 6-27 5-19 7-19 13-30 10-18 10-15 7-11 11-15 9-11 11-12 6-7 5-5 13-12 10-8 12-9 24-16 19-11 21-10 25-9z" fill="#9CA1B2"/>
<path transform="translate(1023,483)" d="m0 0h20l37 2 16 2 26 7v3l-19 12-18 13-12 10-11 9-15 13-7 7-7 6-7 8-10 11-8 10-14 18-12 17-10 16-12 22-8 15-13 29-7 19-8 28-10 52-3 36v34l3 41 5 30 7 31 9 27 14 33 20 40 10 17 15 22 10 13 13 16 12 14 14 14 8 7 10 9 11 9 15 12 14 11 11 10v2l-34 4-41 2h-13l-34-2-28-3-18-4-29-8-23-8-20-9-16-8-25-13-19-12-17-13-17-14-15-14-12-12-7-8-14-17-11-15-12-19-10-18-12-23-10-23-12-36-6-24-4-24-4-37v-35l5-44 5-25 9-31 9-26 11-24 13-25 13-22 13-18 10-13 11-14 9-10 13-13 10-8 16-12 18-13 13-8 23-13 23-12 19-8 27-9 28-7 28-5 27-3z" fill="#FBFBFB"/>
<path transform="translate(1474,366)" d="m0 0h13l13 4 11 6 10 10 6 10 5 17-1 11-4 11-6 11-11 13-30 30-8 7-14 14-13 10-16 8-4 1h-16l-13-4-10-6-7-7-6-10-4-12-1-5v-13l5-13 6-10 9-11 54-54 15-11 11-5z" fill="#9CA1B2"/>
<path transform="translate(578,366)" d="m0 0h11l13 4 11 6 15 13 14 14 7 8 27 27 9 11 9 14 3 8 1 10-3 13-7 14-11 12-14 7-8 2h-18l-13-5-12-9-16-15-14-14-7-8-5-4v-2l-4-2-14-15-7-8-8-14-4-14 2-14 5-13 7-9 7-7 16-8z" fill="#9CA1B2"/>
<path transform="translate(410,814)" d="m0 0h72l21 2 12 5 10 7 9 10 5 10 2 8v17l-4 12-7 11-5 6-9 6-12 4-13 2-15 1h-62l-18-2-11-4-9-6-7-7-7-12-4-14v-11l4-14 8-13 9-8 14-7 8-2z" fill="#9CA1B2"/>
<path transform="translate(1410,1199)" d="m0 0h13l13 4 12 7 15 14 46 46 9 13 5 10 2 9v9l-3 11-6 11-7 9-8 7-12 5-11 2h-8l-12-3-12-6-13-11-12-12-8-7-26-26-9-11-6-9-5-12-1-5v-9l3-12 6-12 10-11 10-6 10-4z" fill="#9CA1B2"/>
<path transform="translate(641,1199)" d="m0 0h13l12 3 13 7 9 9 6 10 4 10 1 4v15l-7 16-8 11-18 20-11 11h-2l-2 4-17 16-9 8-14 8-12 4-6 1h-10l-11-3-11-6-9-9-8-16-2-10v-12l2-10 6-11 11-14 48-48 13-10 12-6z" fill="#9CA1B2"/>
<path transform="translate(1027,1359)" d="m0 0h9l16 4 13 8 8 9 7 14 2 10 1 14v64l-2 21-5 12-8 10-7 7-16 7-7 2h-11l-13-4-9-5-10-9-6-9-5-12-2-15v-60l1-21 3-15 9-14 7-7 10-6 10-4z" fill="#9CA1B2"/>
<path transform="translate(1025,191)" d="m0 0h15l12 3 10 6 7 6 7 10 5 13 2 20v62l-2 21-4 10-7 11-8 8-12 6-8 2h-21l-12-4-8-6-5-5-6-8-4-8-3-12-1-15v-64l2-18 4-11 7-11 8-7 14-7z" fill="#9CA1B2"/>
<path transform="translate(1591,814)" d="m0 0h60l18 2 12 5 12 9 8 10 5 12 1 5v15l-3 10-6 11-9 10-9 6-16 4-25 2h-52l-21-2-10-3-10-6-9-9-7-14-3-11v-11l5-16 7-10 8-8 14-7 15-3z" fill="#9CA1B2"/>
<path transform="translate(1e3 200)" d="m0 0 2 1-11 11-4 6-1-2 8-11z" fill="#FCFCFC"/>
</svg>
