<?xml version="1.0" encoding="UTF-8"?>
<svg version="1.1" viewBox="0 0 976 864" width="244" height="216" xmlns="http://www.w3.org/2000/svg">
<path transform="translate(343,131)" d="m0 0h228l51 1 14 2 15 5 15 8 13 10 13 13 9 14 7 15 4 15 2 15v194l1 1v10l-4 23-5 15-9 16-9 11-6 7-14 11-14 8-15 6-14 3-9 1-129 1v72l85 1 8 4 6 7 1 3v9l-4 8-6 5-8 2h-228l-8-4-6-7-2-6 1-9 4-6 5-4 5-2h86v-74h-132l-14-2-18-6-15-8-10-8-10-9-11-13-10-18-5-16-4-25v-5l2-3-1-19v-165l2-21 5-22 6-16 6-10 10-9 20-14 16-8 17-5 7-1z" fill="#F9F9FA"/>
<path transform="translate(200,424)" d="m0 0h512l2 1v16l-4 20-5 13-8 14-9 11-6 7-14 11-14 8-15 6-14 3-9 1-129 1v72l85 1 8 4 6 7 1 3v9l-4 8-6 5-8 2h-228l-8-4-6-7-2-6 1-9 4-6 5-4 5-2h86v-74h-132l-14-2-18-6-15-8-10-8-10-9-11-13-10-18-5-16-4-25v-5z" fill="#99A0B4"/>
</svg>
